<svg xmlns="http://www.w3.org/2000/svg" version="1.1" xmlns:xlink="http://www.w3.org/1999/xlink" xmlns:svgjs="http://svgjs.com/svgjs" width="1440" height="560" preserveAspectRatio="none" viewBox="0 0 1440 560"><g mask="url(&quot;#SvgjsMask1012&quot;)" fill="none"><path d="M65.76 182.91L130.71 220.41L130.71 295.41L65.76 332.91L0.81 295.41L0.81 220.41zM65.76 407.91L130.71 445.41L130.71 520.41L65.76 557.91L0.81 520.41L0.81 445.41zM195.67 182.91L260.62 220.41L260.62 295.41L195.67 332.91L130.71 295.41L130.71 220.41zM390.53 70.41L455.48 107.91L455.48 182.91L390.53 220.41L325.57 182.91L325.57 107.91zM455.48 407.91L520.44 445.41L520.44 520.41L455.48 557.91L390.53 520.41L390.53 445.41zM780.25 295.41L845.21 332.91L845.21 407.91L780.25 445.41L715.3 407.91L715.3 332.91zM910.16 70.41L975.11 107.91L975.11 182.91L910.16 220.41L845.2 182.91L845.2 107.91zM845.2 407.91L910.16 445.41L910.16 520.41L845.2 557.91L780.25 520.41L780.25 445.41zM975.11 -42.09L1040.07 -4.59L1040.07 70.41L975.11 107.91L910.16 70.41L910.16 -4.59zM1105.02 -42.09L1169.97 -4.59L1169.97 70.41L1105.02 107.91L1040.07 70.41L1040.07 -4.59zM1169.97 70.41L1234.93 107.91L1234.93 182.91L1169.97 220.41L1105.02 182.91L1105.02 107.91zM1234.93 182.91L1299.88 220.41L1299.88 295.41L1234.93 332.91L1169.97 295.41L1169.97 220.41zM1234.93 407.91L1299.88 445.41L1299.88 520.41L1234.93 557.91L1169.97 520.41L1169.97 445.41zM1299.88 520.41L1364.83 557.91L1364.83 632.91L1299.88 670.41L1234.93 632.91L1234.93 557.91zM1429.79 520.41L1494.74 557.91L1494.74 632.91L1429.79 670.41L1364.84 632.91L1364.84 557.91zM1559.7 520.41L1624.65 557.91L1624.65 632.91L1559.7 670.41L1494.74 632.91L1494.74 557.91z" stroke="rgba(224, 224, 224, 0.93)" stroke-width="2"></path><path d="M58.26 182.91 a7.5 7.5 0 1 0 15 0 a7.5 7.5 0 1 0 -15 0zM123.21 220.41 a7.5 7.5 0 1 0 15 0 a7.5 7.5 0 1 0 -15 0zM123.21 295.41 a7.5 7.5 0 1 0 15 0 a7.5 7.5 0 1 0 -15 0zM58.26 332.91 a7.5 7.5 0 1 0 15 0 a7.5 7.5 0 1 0 -15 0zM-6.69 295.41 a7.5 7.5 0 1 0 15 0 a7.5 7.5 0 1 0 -15 0zM-6.69 220.41 a7.5 7.5 0 1 0 15 0 a7.5 7.5 0 1 0 -15 0zM58.26 407.91 a7.5 7.5 0 1 0 15 0 a7.5 7.5 0 1 0 -15 0zM123.21 445.41 a7.5 7.5 0 1 0 15 0 a7.5 7.5 0 1 0 -15 0zM123.21 520.41 a7.5 7.5 0 1 0 15 0 a7.5 7.5 0 1 0 -15 0zM58.26 557.91 a7.5 7.5 0 1 0 15 0 a7.5 7.5 0 1 0 -15 0zM-6.69 520.41 a7.5 7.5 0 1 0 15 0 a7.5 7.5 0 1 0 -15 0zM-6.69 445.41 a7.5 7.5 0 1 0 15 0 a7.5 7.5 0 1 0 -15 0zM188.17 182.91 a7.5 7.5 0 1 0 15 0 a7.5 7.5 0 1 0 -15 0zM253.12 220.41 a7.5 7.5 0 1 0 15 0 a7.5 7.5 0 1 0 -15 0zM253.12 295.41 a7.5 7.5 0 1 0 15 0 a7.5 7.5 0 1 0 -15 0zM188.17 332.91 a7.5 7.5 0 1 0 15 0 a7.5 7.5 0 1 0 -15 0zM383.03 70.41 a7.5 7.5 0 1 0 15 0 a7.5 7.5 0 1 0 -15 0zM447.98 107.91 a7.5 7.5 0 1 0 15 0 a7.5 7.5 0 1 0 -15 0zM447.98 182.91 a7.5 7.5 0 1 0 15 0 a7.5 7.5 0 1 0 -15 0zM383.03 220.41 a7.5 7.5 0 1 0 15 0 a7.5 7.5 0 1 0 -15 0zM318.07 182.91 a7.5 7.5 0 1 0 15 0 a7.5 7.5 0 1 0 -15 0zM318.07 107.91 a7.5 7.5 0 1 0 15 0 a7.5 7.5 0 1 0 -15 0zM447.98 407.91 a7.5 7.5 0 1 0 15 0 a7.5 7.5 0 1 0 -15 0zM512.94 445.41 a7.5 7.5 0 1 0 15 0 a7.5 7.5 0 1 0 -15 0zM512.94 520.41 a7.5 7.5 0 1 0 15 0 a7.5 7.5 0 1 0 -15 0zM447.98 557.91 a7.5 7.5 0 1 0 15 0 a7.5 7.5 0 1 0 -15 0zM383.03 520.41 a7.5 7.5 0 1 0 15 0 a7.5 7.5 0 1 0 -15 0zM383.03 445.41 a7.5 7.5 0 1 0 15 0 a7.5 7.5 0 1 0 -15 0zM772.75 295.41 a7.5 7.5 0 1 0 15 0 a7.5 7.5 0 1 0 -15 0zM837.71 332.91 a7.5 7.5 0 1 0 15 0 a7.5 7.5 0 1 0 -15 0zM837.71 407.91 a7.5 7.5 0 1 0 15 0 a7.5 7.5 0 1 0 -15 0zM772.75 445.41 a7.5 7.5 0 1 0 15 0 a7.5 7.5 0 1 0 -15 0zM707.8 407.91 a7.5 7.5 0 1 0 15 0 a7.5 7.5 0 1 0 -15 0zM707.8 332.91 a7.5 7.5 0 1 0 15 0 a7.5 7.5 0 1 0 -15 0zM902.66 70.41 a7.5 7.5 0 1 0 15 0 a7.5 7.5 0 1 0 -15 0zM967.61 107.91 a7.5 7.5 0 1 0 15 0 a7.5 7.5 0 1 0 -15 0zM967.61 182.91 a7.5 7.5 0 1 0 15 0 a7.5 7.5 0 1 0 -15 0zM902.66 220.41 a7.5 7.5 0 1 0 15 0 a7.5 7.5 0 1 0 -15 0zM837.7 182.91 a7.5 7.5 0 1 0 15 0 a7.5 7.5 0 1 0 -15 0zM837.7 107.91 a7.5 7.5 0 1 0 15 0 a7.5 7.5 0 1 0 -15 0zM837.7 407.91 a7.5 7.5 0 1 0 15 0 a7.5 7.5 0 1 0 -15 0zM902.66 445.41 a7.5 7.5 0 1 0 15 0 a7.5 7.5 0 1 0 -15 0zM902.66 520.41 a7.5 7.5 0 1 0 15 0 a7.5 7.5 0 1 0 -15 0zM837.7 557.91 a7.5 7.5 0 1 0 15 0 a7.5 7.5 0 1 0 -15 0zM772.75 520.41 a7.5 7.5 0 1 0 15 0 a7.5 7.5 0 1 0 -15 0zM967.61 -42.09 a7.5 7.5 0 1 0 15 0 a7.5 7.5 0 1 0 -15 0zM1032.57 -4.59 a7.5 7.5 0 1 0 15 0 a7.5 7.5 0 1 0 -15 0zM1032.57 70.41 a7.5 7.5 0 1 0 15 0 a7.5 7.5 0 1 0 -15 0zM902.66 -4.59 a7.5 7.5 0 1 0 15 0 a7.5 7.5 0 1 0 -15 0zM1097.52 -42.09 a7.5 7.5 0 1 0 15 0 a7.5 7.5 0 1 0 -15 0zM1162.47 -4.59 a7.5 7.5 0 1 0 15 0 a7.5 7.5 0 1 0 -15 0zM1162.47 70.41 a7.5 7.5 0 1 0 15 0 a7.5 7.5 0 1 0 -15 0zM1097.52 107.91 a7.5 7.5 0 1 0 15 0 a7.5 7.5 0 1 0 -15 0zM1227.43 107.91 a7.5 7.5 0 1 0 15 0 a7.5 7.5 0 1 0 -15 0zM1227.43 182.91 a7.5 7.5 0 1 0 15 0 a7.5 7.5 0 1 0 -15 0zM1162.47 220.41 a7.5 7.5 0 1 0 15 0 a7.5 7.5 0 1 0 -15 0zM1097.52 182.91 a7.5 7.5 0 1 0 15 0 a7.5 7.5 0 1 0 -15 0zM1292.38 220.41 a7.5 7.5 0 1 0 15 0 a7.5 7.5 0 1 0 -15 0zM1292.38 295.41 a7.5 7.5 0 1 0 15 0 a7.5 7.5 0 1 0 -15 0zM1227.43 332.91 a7.5 7.5 0 1 0 15 0 a7.5 7.5 0 1 0 -15 0zM1162.47 295.41 a7.5 7.5 0 1 0 15 0 a7.5 7.5 0 1 0 -15 0zM1227.43 407.91 a7.5 7.5 0 1 0 15 0 a7.5 7.5 0 1 0 -15 0zM1292.38 445.41 a7.5 7.5 0 1 0 15 0 a7.5 7.5 0 1 0 -15 0zM1292.38 520.41 a7.5 7.5 0 1 0 15 0 a7.5 7.5 0 1 0 -15 0zM1227.43 557.91 a7.5 7.5 0 1 0 15 0 a7.5 7.5 0 1 0 -15 0zM1162.47 520.41 a7.5 7.5 0 1 0 15 0 a7.5 7.5 0 1 0 -15 0zM1162.47 445.41 a7.5 7.5 0 1 0 15 0 a7.5 7.5 0 1 0 -15 0zM1357.33 557.91 a7.5 7.5 0 1 0 15 0 a7.5 7.5 0 1 0 -15 0zM1357.33 632.91 a7.5 7.5 0 1 0 15 0 a7.5 7.5 0 1 0 -15 0zM1292.38 670.41 a7.5 7.5 0 1 0 15 0 a7.5 7.5 0 1 0 -15 0zM1227.43 632.91 a7.5 7.5 0 1 0 15 0 a7.5 7.5 0 1 0 -15 0zM1422.29 520.41 a7.5 7.5 0 1 0 15 0 a7.5 7.5 0 1 0 -15 0zM1487.24 557.91 a7.5 7.5 0 1 0 15 0 a7.5 7.5 0 1 0 -15 0zM1487.24 632.91 a7.5 7.5 0 1 0 15 0 a7.5 7.5 0 1 0 -15 0zM1422.29 670.41 a7.5 7.5 0 1 0 15 0 a7.5 7.5 0 1 0 -15 0zM1357.34 632.91 a7.5 7.5 0 1 0 15 0 a7.5 7.5 0 1 0 -15 0zM1357.34 557.91 a7.5 7.5 0 1 0 15 0 a7.5 7.5 0 1 0 -15 0zM1552.2 520.41 a7.5 7.5 0 1 0 15 0 a7.5 7.5 0 1 0 -15 0zM1617.15 557.91 a7.5 7.5 0 1 0 15 0 a7.5 7.5 0 1 0 -15 0zM1617.15 632.91 a7.5 7.5 0 1 0 15 0 a7.5 7.5 0 1 0 -15 0zM1552.2 670.41 a7.5 7.5 0 1 0 15 0 a7.5 7.5 0 1 0 -15 0z" fill="rgba(224, 224, 224, 0.93)"></path><path d="M56.96 65.17L100.27 90.17L100.27 140.17L56.96 165.17L13.66 140.17L13.66 90.17zM13.66 140.17L56.96 165.17L56.96 215.17L13.66 240.17L-29.64 215.17L-29.64 165.17zM56.96 365.17L100.27 390.17L100.27 440.17L56.96 465.17L13.66 440.17L13.66 390.17zM100.27 140.17L143.57 165.17L143.57 215.17L100.27 240.17L56.96 215.17L56.96 165.17zM100.27 290.17L143.57 315.17L143.57 365.17L100.27 390.17L56.96 365.17L56.96 315.17zM100.27 440.17L143.57 465.17L143.57 515.17L100.27 540.17L56.96 515.17L56.96 465.17zM143.57 515.17L186.87 540.17L186.87 590.17L143.57 615.17L100.27 590.17L100.27 540.17zM186.87 -9.83L230.17 15.17L230.17 65.17L186.87 90.17L143.57 65.17L143.57 15.17zM186.87 140.17L230.17 165.17L230.17 215.17L186.87 240.17L143.57 215.17L143.57 165.17zM186.87 290.17L230.17 315.17L230.17 365.17L186.87 390.17L143.57 365.17L143.57 315.17zM230.17 515.17L273.48 540.17L273.48 590.17L230.17 615.17L186.87 590.17L186.87 540.17zM273.48 140.17L316.78 165.17L316.78 215.17L273.48 240.17L230.17 215.17L230.17 165.17zM273.48 290.17L316.78 315.17L316.78 365.17L273.48 390.17L230.17 365.17L230.17 315.17zM316.78 365.17L360.08 390.17L360.08 440.17L316.78 465.17L273.48 440.17L273.48 390.17zM403.38 65.17L446.69 90.17L446.69 140.17L403.38 165.17L360.08 140.17L360.08 90.17zM360.08 440.17L403.38 465.17L403.38 515.17L360.08 540.17L316.78 515.17L316.78 465.17zM403.38 515.17L446.69 540.17L446.69 590.17L403.38 615.17L360.08 590.17L360.08 540.17zM446.69 140.17L489.99 165.17L489.99 215.17L446.69 240.17L403.38 215.17L403.38 165.17zM489.99 215.17L533.29 240.17L533.29 290.17L489.99 315.17L446.69 290.17L446.69 240.17zM489.99 365.17L533.29 390.17L533.29 440.17L489.99 465.17L446.69 440.17L446.69 390.17zM489.99 515.17L533.29 540.17L533.29 590.17L489.99 615.17L446.69 590.17L446.69 540.17zM619.89 -9.83L663.2 15.17L663.2 65.17L619.89 90.17L576.59 65.17L576.59 15.17zM663.2 215.17L706.5 240.17L706.5 290.17L663.2 315.17L619.89 290.17L619.89 240.17zM619.89 290.17L663.2 315.17L663.2 365.17L619.89 390.17L576.59 365.17L576.59 315.17zM619.89 440.17L663.2 465.17L663.2 515.17L619.89 540.17L576.59 515.17L576.59 465.17zM706.5 -9.83L749.8 15.17L749.8 65.17L706.5 90.17L663.2 65.17L663.2 15.17zM749.8 65.17L793.11 90.17L793.11 140.17L749.8 165.17L706.5 140.17L706.5 90.17zM749.8 215.17L793.11 240.17L793.11 290.17L749.8 315.17L706.5 290.17L706.5 240.17zM706.5 290.17L749.8 315.17L749.8 365.17L706.5 390.17L663.2 365.17L663.2 315.17zM749.8 365.17L793.11 390.17L793.11 440.17L749.8 465.17L706.5 440.17L706.5 390.17zM706.5 440.17L749.8 465.17L749.8 515.17L706.5 540.17L663.2 515.17L663.2 465.17zM749.8 515.17L793.11 540.17L793.11 590.17L749.8 615.17L706.5 590.17L706.5 540.17zM836.41 65.17L879.71 90.17L879.71 140.17L836.41 165.17L793.11 140.17L793.11 90.17zM793.11 290.17L836.41 315.17L836.41 365.17L793.11 390.17L749.8 365.17L749.8 315.17zM836.41 365.17L879.71 390.17L879.71 440.17L836.41 465.17L793.11 440.17L793.11 390.17zM793.11 440.17L836.41 465.17L836.41 515.17L793.11 540.17L749.8 515.17L749.8 465.17zM923.01 65.17L966.32 90.17L966.32 140.17L923.01 165.17L879.71 140.17L879.71 90.17zM879.71 140.17L923.01 165.17L923.01 215.17L879.71 240.17L836.41 215.17L836.41 165.17zM966.32 140.17L1009.62 165.17L1009.62 215.17L966.32 240.17L923.01 215.17L923.01 165.17zM966.32 290.17L1009.62 315.17L1009.62 365.17L966.32 390.17L923.01 365.17L923.01 315.17zM1009.62 365.17L1052.92 390.17L1052.92 440.17L1009.62 465.17L966.32 440.17L966.32 390.17zM1096.22 65.17L1139.53 90.17L1139.53 140.17L1096.22 165.17L1052.92 140.17L1052.92 90.17zM1052.92 140.17L1096.22 165.17L1096.22 215.17L1052.92 240.17L1009.62 215.17L1009.62 165.17zM1096.22 365.17L1139.53 390.17L1139.53 440.17L1096.22 465.17L1052.92 440.17L1052.92 390.17zM1139.53 -9.83L1182.83 15.17L1182.83 65.17L1139.53 90.17L1096.22 65.17L1096.22 15.17zM1139.53 440.17L1182.83 465.17L1182.83 515.17L1139.53 540.17L1096.22 515.17L1096.22 465.17zM1182.83 515.17L1226.13 540.17L1226.13 590.17L1182.83 615.17L1139.53 590.17L1139.53 540.17zM1226.13 -9.83L1269.43 15.17L1269.43 65.17L1226.13 90.17L1182.83 65.17L1182.83 15.17zM1269.43 65.17L1312.74 90.17L1312.74 140.17L1269.43 165.17L1226.13 140.17L1226.13 90.17zM1226.13 440.17L1269.43 465.17L1269.43 515.17L1226.13 540.17L1182.83 515.17L1182.83 465.17zM1269.43 515.17L1312.74 540.17L1312.74 590.17L1269.43 615.17L1226.13 590.17L1226.13 540.17zM1312.74 -9.83L1356.04 15.17L1356.04 65.17L1312.74 90.17L1269.43 65.17L1269.43 15.17zM1356.04 65.17L1399.34 90.17L1399.34 140.17L1356.04 165.17L1312.74 140.17L1312.74 90.17zM1356.04 215.17L1399.34 240.17L1399.34 290.17L1356.04 315.17L1312.74 290.17L1312.74 240.17zM1356.04 515.17L1399.34 540.17L1399.34 590.17L1356.04 615.17L1312.74 590.17L1312.74 540.17zM1399.34 140.17L1442.64 165.17L1442.64 215.17L1399.34 240.17L1356.04 215.17L1356.04 165.17zM1442.64 215.17L1485.95 240.17L1485.95 290.17L1442.64 315.17L1399.34 290.17L1399.34 240.17z" stroke="rgba(161, 161, 161, 0.51)" stroke-width="2"></path></g><defs><mask id="SvgjsMask1012"><rect width="1440" height="560" fill="#ffffff"></rect></mask></defs></svg>