<svg xmlns="http://www.w3.org/2000/svg" version="1.1" xmlns:xlink="http://www.w3.org/1999/xlink" xmlns:svgjs="http://svgjs.com/svgjs" width="1440" height="560" preserveAspectRatio="none" viewBox="0 0 1440 560"><g mask="url(&quot;#SvgjsMask1008&quot;)" fill="none"><path d="M-38.05 409.12L-38.05 409.12" stroke="rgba(63, 63, 63, 1)" stroke-width="1.5"></path><path d="M-38.05 409.12L-41.15 504.07" stroke="rgba(63, 63, 63, 1)" stroke-width="1.5"></path><path d="M-38.05 409.12L103.32 380.44" stroke="rgba(63, 63, 63, 1)" stroke-width="1.5"></path><path d="M-38.05 409.12L99.14 511.34" stroke="rgba(63, 63, 63, 1)" stroke-width="1.5"></path><path d="M-38.05 409.12L-83.63 656.67" stroke="rgba(63, 63, 63, 1)" stroke-width="1.5"></path><path d="M-38.05 409.12L217.42 491.92" stroke="rgba(63, 63, 63, 1)" stroke-width="1.5"></path><path d="M-38.05 409.12L245.6 395.35" stroke="rgba(63, 63, 63, 1)" stroke-width="1.5"></path><path d="M-41.15 504.07L-41.15 504.07" stroke="rgba(63, 63, 63, 1)" stroke-width="1.5"></path><path d="M-41.15 504.07L99.14 511.34" stroke="rgba(63, 63, 63, 1)" stroke-width="1.5"></path><path d="M-41.15 504.07L-83.63 656.67" stroke="rgba(63, 63, 63, 1)" stroke-width="1.5"></path><path d="M-41.15 504.07L103.32 380.44" stroke="rgba(63, 63, 63, 1)" stroke-width="1.5"></path><path d="M-41.15 504.07L110.37 669.9" stroke="rgba(63, 63, 63, 1)" stroke-width="1.5"></path><path d="M-83.63 656.67L-83.63 656.67" stroke="rgba(63, 63, 63, 1)" stroke-width="1.5"></path><path d="M-83.63 656.67L110.37 669.9" stroke="rgba(63, 63, 63, 1)" stroke-width="1.5"></path><path d="M103.32 380.44L103.32 380.44" stroke="rgba(63, 63, 63, 1)" stroke-width="1.5"></path><path d="M103.32 380.44L99.14 511.34" stroke="rgba(63, 63, 63, 1)" stroke-width="1.5"></path><path d="M103.32 380.44L245.6 395.35" stroke="rgba(63, 63, 63, 1)" stroke-width="1.5"></path><path d="M99.14 511.34L99.14 511.34" stroke="rgba(63, 63, 63, 1)" stroke-width="1.5"></path><path d="M99.14 511.34L217.42 491.92" stroke="rgba(63, 63, 63, 1)" stroke-width="1.5"></path><path d="M99.14 511.34L110.37 669.9" stroke="rgba(63, 63, 63, 1)" stroke-width="1.5"></path><path d="M110.37 669.9L110.37 669.9" stroke="rgba(63, 63, 63, 1)" stroke-width="1.5"></path><path d="M110.37 669.9L244.01 709.04" stroke="rgba(63, 63, 63, 1)" stroke-width="1.5"></path><path d="M110.37 669.9L217.42 491.92" stroke="rgba(63, 63, 63, 1)" stroke-width="1.5"></path><path d="M110.37 669.9L387.1 704.19" stroke="rgba(63, 63, 63, 1)" stroke-width="1.5"></path><path d="M245.6 395.35L245.6 395.35" stroke="rgba(63, 63, 63, 1)" stroke-width="1.5"></path><path d="M245.6 395.35L217.42 491.92" stroke="rgba(63, 63, 63, 1)" stroke-width="1.5"></path><path d="M245.6 395.35L337.94 489.13" stroke="rgba(63, 63, 63, 1)" stroke-width="1.5"></path><path d="M217.42 491.92L217.42 491.92" stroke="rgba(63, 63, 63, 1)" stroke-width="1.5"></path><path d="M217.42 491.92L337.94 489.13" stroke="rgba(63, 63, 63, 1)" stroke-width="1.5"></path><path d="M217.42 491.92L103.32 380.44" stroke="rgba(63, 63, 63, 1)" stroke-width="1.5"></path><path d="M217.42 491.92L244.01 709.04" stroke="rgba(63, 63, 63, 1)" stroke-width="1.5"></path><path d="M244.01 709.04L244.01 709.04" stroke="rgba(63, 63, 63, 1)" stroke-width="1.5"></path><path d="M244.01 709.04L387.1 704.19" stroke="rgba(63, 63, 63, 1)" stroke-width="1.5"></path><path d="M244.01 709.04L337.94 489.13" stroke="rgba(63, 63, 63, 1)" stroke-width="1.5"></path><path d="M244.01 709.04L99.14 511.34" stroke="rgba(63, 63, 63, 1)" stroke-width="1.5"></path><path d="M404.99 341.45L404.99 341.45" stroke="rgba(63, 63, 63, 1)" stroke-width="1.5"></path><path d="M404.99 341.45L536.13 342.8" stroke="rgba(63, 63, 63, 1)" stroke-width="1.5"></path><path d="M404.99 341.45L337.94 489.13" stroke="rgba(63, 63, 63, 1)" stroke-width="1.5"></path><path d="M404.99 341.45L245.6 395.35" stroke="rgba(63, 63, 63, 1)" stroke-width="1.5"></path><path d="M337.94 489.13L337.94 489.13" stroke="rgba(63, 63, 63, 1)" stroke-width="1.5"></path><path d="M337.94 489.13L489.32 543.83" stroke="rgba(63, 63, 63, 1)" stroke-width="1.5"></path><path d="M337.94 489.13L387.1 704.19" stroke="rgba(63, 63, 63, 1)" stroke-width="1.5"></path><path d="M387.1 704.19L387.1 704.19" stroke="rgba(63, 63, 63, 1)" stroke-width="1.5"></path><path d="M387.1 704.19L489.32 543.83" stroke="rgba(63, 63, 63, 1)" stroke-width="1.5"></path><path d="M387.1 704.19L217.42 491.92" stroke="rgba(63, 63, 63, 1)" stroke-width="1.5"></path><path d="M387.1 704.19L657.12 642.48" stroke="rgba(63, 63, 63, 1)" stroke-width="1.5"></path><path d="M536.13 342.8L536.13 342.8" stroke="rgba(63, 63, 63, 1)" stroke-width="1.5"></path><path d="M536.13 342.8L689.42 368.31" stroke="rgba(63, 63, 63, 1)" stroke-width="1.5"></path><path d="M536.13 342.8L672.89 223.49" stroke="rgba(63, 63, 63, 1)" stroke-width="1.5"></path><path d="M536.13 342.8L489.32 543.83" stroke="rgba(63, 63, 63, 1)" stroke-width="1.5"></path><path d="M536.13 342.8L640.67 559.74" stroke="rgba(63, 63, 63, 1)" stroke-width="1.5"></path><path d="M489.32 543.83L489.32 543.83" stroke="rgba(63, 63, 63, 1)" stroke-width="1.5"></path><path d="M489.32 543.83L640.67 559.74" stroke="rgba(63, 63, 63, 1)" stroke-width="1.5"></path><path d="M489.32 543.83L657.12 642.48" stroke="rgba(63, 63, 63, 1)" stroke-width="1.5"></path><path d="M489.32 543.83L404.99 341.45" stroke="rgba(63, 63, 63, 1)" stroke-width="1.5"></path><path d="M672.89 223.49L672.89 223.49" stroke="rgba(63, 63, 63, 1)" stroke-width="1.5"></path><path d="M672.89 223.49L689.42 368.31" stroke="rgba(63, 63, 63, 1)" stroke-width="1.5"></path><path d="M689.42 368.31L689.42 368.31" stroke="rgba(63, 63, 63, 1)" stroke-width="1.5"></path><path d="M689.42 368.31L817.03 360.25" stroke="rgba(63, 63, 63, 1)" stroke-width="1.5"></path><path d="M689.42 368.31L640.67 559.74" stroke="rgba(63, 63, 63, 1)" stroke-width="1.5"></path><path d="M689.42 368.31L822.61 561.71" stroke="rgba(63, 63, 63, 1)" stroke-width="1.5"></path><path d="M640.67 559.74L640.67 559.74" stroke="rgba(63, 63, 63, 1)" stroke-width="1.5"></path><path d="M640.67 559.74L657.12 642.48" stroke="rgba(63, 63, 63, 1)" stroke-width="1.5"></path><path d="M657.12 642.48L657.12 642.48" stroke="rgba(63, 63, 63, 1)" stroke-width="1.5"></path><path d="M657.12 642.48L808.3 683.27" stroke="rgba(63, 63, 63, 1)" stroke-width="1.5"></path><path d="M817.03 360.25L817.03 360.25" stroke="rgba(63, 63, 63, 1)" stroke-width="1.5"></path><path d="M817.03 360.25L960.73 357.4" stroke="rgba(63, 63, 63, 1)" stroke-width="1.5"></path><path d="M817.03 360.25L672.89 223.49" stroke="rgba(63, 63, 63, 1)" stroke-width="1.5"></path><path d="M817.03 360.25L822.61 561.71" stroke="rgba(63, 63, 63, 1)" stroke-width="1.5"></path><path d="M822.61 561.71L822.61 561.71" stroke="rgba(63, 63, 63, 1)" stroke-width="1.5"></path><path d="M822.61 561.71L808.3 683.27" stroke="rgba(63, 63, 63, 1)" stroke-width="1.5"></path><path d="M822.61 561.71L640.67 559.74" stroke="rgba(63, 63, 63, 1)" stroke-width="1.5"></path><path d="M808.3 683.27L808.3 683.27" stroke="rgba(63, 63, 63, 1)" stroke-width="1.5"></path><path d="M808.3 683.27L980.33 704.12" stroke="rgba(63, 63, 63, 1)" stroke-width="1.5"></path><path d="M808.3 683.27L640.67 559.74" stroke="rgba(63, 63, 63, 1)" stroke-width="1.5"></path><path d="M808.3 683.27L1008 561.56" stroke="rgba(63, 63, 63, 1)" stroke-width="1.5"></path><path d="M974.72 -75.96L974.72 -75.96" stroke="rgba(63, 63, 63, 1)" stroke-width="1.5"></path><path d="M974.72 -75.96L1111.3 -103.26" stroke="rgba(63, 63, 63, 1)" stroke-width="1.5"></path><path d="M974.72 -75.96L973.61 91.81" stroke="rgba(63, 63, 63, 1)" stroke-width="1.5"></path><path d="M974.72 -75.96L1132.18 57.72" stroke="rgba(63, 63, 63, 1)" stroke-width="1.5"></path><path d="M974.72 -75.96L965.35 206.26" stroke="rgba(63, 63, 63, 1)" stroke-width="1.5"></path><path d="M974.72 -75.96L1271.62 -52.46" stroke="rgba(63, 63, 63, 1)" stroke-width="1.5"></path><path d="M974.72 -75.96L1267.67 40.96" stroke="rgba(63, 63, 63, 1)" stroke-width="1.5"></path><path d="M973.61 91.81L973.61 91.81" stroke="rgba(63, 63, 63, 1)" stroke-width="1.5"></path><path d="M973.61 91.81L965.35 206.26" stroke="rgba(63, 63, 63, 1)" stroke-width="1.5"></path><path d="M973.61 91.81L1132.18 57.72" stroke="rgba(63, 63, 63, 1)" stroke-width="1.5"></path><path d="M973.61 91.81L1145.63 217.8" stroke="rgba(63, 63, 63, 1)" stroke-width="1.5"></path><path d="M973.61 91.81L1111.3 -103.26" stroke="rgba(63, 63, 63, 1)" stroke-width="1.5"></path><path d="M973.61 91.81L960.73 357.4" stroke="rgba(63, 63, 63, 1)" stroke-width="1.5"></path><path d="M965.35 206.26L965.35 206.26" stroke="rgba(63, 63, 63, 1)" stroke-width="1.5"></path><path d="M960.73 357.4L960.73 357.4" stroke="rgba(63, 63, 63, 1)" stroke-width="1.5"></path><path d="M960.73 357.4L1094.76 385.23" stroke="rgba(63, 63, 63, 1)" stroke-width="1.5"></path><path d="M960.73 357.4L965.35 206.26" stroke="rgba(63, 63, 63, 1)" stroke-width="1.5"></path><path d="M960.73 357.4L1008 561.56" stroke="rgba(63, 63, 63, 1)" stroke-width="1.5"></path><path d="M1008 561.56L1008 561.56" stroke="rgba(63, 63, 63, 1)" stroke-width="1.5"></path><path d="M1008 561.56L1123.37 508.64" stroke="rgba(63, 63, 63, 1)" stroke-width="1.5"></path><path d="M1008 561.56L980.33 704.12" stroke="rgba(63, 63, 63, 1)" stroke-width="1.5"></path><path d="M1008 561.56L1140.15 655.1" stroke="rgba(63, 63, 63, 1)" stroke-width="1.5"></path><path d="M1008 561.56L822.61 561.71" stroke="rgba(63, 63, 63, 1)" stroke-width="1.5"></path><path d="M1008 561.56L1094.76 385.23" stroke="rgba(63, 63, 63, 1)" stroke-width="1.5"></path><path d="M980.33 704.12L980.33 704.12" stroke="rgba(63, 63, 63, 1)" stroke-width="1.5"></path><path d="M980.33 704.12L1140.15 655.1" stroke="rgba(63, 63, 63, 1)" stroke-width="1.5"></path><path d="M980.33 704.12L822.61 561.71" stroke="rgba(63, 63, 63, 1)" stroke-width="1.5"></path><path d="M980.33 704.12L1123.37 508.64" stroke="rgba(63, 63, 63, 1)" stroke-width="1.5"></path><path d="M1111.3 -103.26L1111.3 -103.26" stroke="rgba(63, 63, 63, 1)" stroke-width="1.5"></path><path d="M1111.3 -103.26L1132.18 57.72" stroke="rgba(63, 63, 63, 1)" stroke-width="1.5"></path><path d="M1111.3 -103.26L1271.62 -52.46" stroke="rgba(63, 63, 63, 1)" stroke-width="1.5"></path><path d="M1132.18 57.72L1132.18 57.72" stroke="rgba(63, 63, 63, 1)" stroke-width="1.5"></path><path d="M1132.18 57.72L1267.67 40.96" stroke="rgba(63, 63, 63, 1)" stroke-width="1.5"></path><path d="M1132.18 57.72L1145.63 217.8" stroke="rgba(63, 63, 63, 1)" stroke-width="1.5"></path><path d="M1132.18 57.72L1271.62 -52.46" stroke="rgba(63, 63, 63, 1)" stroke-width="1.5"></path><path d="M1145.63 217.8L1145.63 217.8" stroke="rgba(63, 63, 63, 1)" stroke-width="1.5"></path><path d="M1145.63 217.8L1261.62 230.45" stroke="rgba(63, 63, 63, 1)" stroke-width="1.5"></path><path d="M1145.63 217.8L1094.76 385.23" stroke="rgba(63, 63, 63, 1)" stroke-width="1.5"></path><path d="M1145.63 217.8L965.35 206.26" stroke="rgba(63, 63, 63, 1)" stroke-width="1.5"></path><path d="M1145.63 217.8L1275.07 379.53" stroke="rgba(63, 63, 63, 1)" stroke-width="1.5"></path><path d="M1094.76 385.23L1094.76 385.23" stroke="rgba(63, 63, 63, 1)" stroke-width="1.5"></path><path d="M1094.76 385.23L1123.37 508.64" stroke="rgba(63, 63, 63, 1)" stroke-width="1.5"></path><path d="M1123.37 508.64L1123.37 508.64" stroke="rgba(63, 63, 63, 1)" stroke-width="1.5"></path><path d="M1123.37 508.64L1140.15 655.1" stroke="rgba(63, 63, 63, 1)" stroke-width="1.5"></path><path d="M1140.15 655.1L1140.15 655.1" stroke="rgba(63, 63, 63, 1)" stroke-width="1.5"></path><path d="M1140.15 655.1L1270.63 678.59" stroke="rgba(63, 63, 63, 1)" stroke-width="1.5"></path><path d="M1140.15 655.1L1394.17 656.94" stroke="rgba(63, 63, 63, 1)" stroke-width="1.5"></path><path d="M1271.62 -52.46L1271.62 -52.46" stroke="rgba(63, 63, 63, 1)" stroke-width="1.5"></path><path d="M1271.62 -52.46L1267.67 40.96" stroke="rgba(63, 63, 63, 1)" stroke-width="1.5"></path><path d="M1271.62 -52.46L1410.36 99.35" stroke="rgba(63, 63, 63, 1)" stroke-width="1.5"></path><path d="M1271.62 -52.46L1261.62 230.45" stroke="rgba(63, 63, 63, 1)" stroke-width="1.5"></path><path d="M1271.62 -52.46L1560.49 -74.5" stroke="rgba(63, 63, 63, 1)" stroke-width="1.5"></path><path d="M1267.67 40.96L1267.67 40.96" stroke="rgba(63, 63, 63, 1)" stroke-width="1.5"></path><path d="M1261.62 230.45L1261.62 230.45" stroke="rgba(63, 63, 63, 1)" stroke-width="1.5"></path><path d="M1261.62 230.45L1393.61 261.91" stroke="rgba(63, 63, 63, 1)" stroke-width="1.5"></path><path d="M1261.62 230.45L1275.07 379.53" stroke="rgba(63, 63, 63, 1)" stroke-width="1.5"></path><path d="M1261.62 230.45L1267.67 40.96" stroke="rgba(63, 63, 63, 1)" stroke-width="1.5"></path><path d="M1275.07 379.53L1275.07 379.53" stroke="rgba(63, 63, 63, 1)" stroke-width="1.5"></path><path d="M1275.07 379.53L1393.61 261.91" stroke="rgba(63, 63, 63, 1)" stroke-width="1.5"></path><path d="M1275.07 379.53L1094.76 385.23" stroke="rgba(63, 63, 63, 1)" stroke-width="1.5"></path><path d="M1270.63 678.59L1270.63 678.59" stroke="rgba(63, 63, 63, 1)" stroke-width="1.5"></path><path d="M1270.63 678.59L1394.17 656.94" stroke="rgba(63, 63, 63, 1)" stroke-width="1.5"></path><path d="M1270.63 678.59L1400.05 552.06" stroke="rgba(63, 63, 63, 1)" stroke-width="1.5"></path><path d="M1270.63 678.59L1123.37 508.64" stroke="rgba(63, 63, 63, 1)" stroke-width="1.5"></path><path d="M1270.63 678.59L1008 561.56" stroke="rgba(63, 63, 63, 1)" stroke-width="1.5"></path><path d="M1270.63 678.59L980.33 704.12" stroke="rgba(63, 63, 63, 1)" stroke-width="1.5"></path><path d="M1410.36 99.35L1410.36 99.35" stroke="rgba(63, 63, 63, 1)" stroke-width="1.5"></path><path d="M1410.36 99.35L1267.67 40.96" stroke="rgba(63, 63, 63, 1)" stroke-width="1.5"></path><path d="M1410.36 99.35L1393.61 261.91" stroke="rgba(63, 63, 63, 1)" stroke-width="1.5"></path><path d="M1410.36 99.35L1557.66 218.18" stroke="rgba(63, 63, 63, 1)" stroke-width="1.5"></path><path d="M1393.61 261.91L1393.61 261.91" stroke="rgba(63, 63, 63, 1)" stroke-width="1.5"></path><path d="M1393.61 261.91L1461.73 369.25" stroke="rgba(63, 63, 63, 1)" stroke-width="1.5"></path><path d="M1461.73 369.25L1461.73 369.25" stroke="rgba(63, 63, 63, 1)" stroke-width="1.5"></path><path d="M1461.73 369.25L1557.66 218.18" stroke="rgba(63, 63, 63, 1)" stroke-width="1.5"></path><path d="M1461.73 369.25L1275.07 379.53" stroke="rgba(63, 63, 63, 1)" stroke-width="1.5"></path><path d="M1461.73 369.25L1400.05 552.06" stroke="rgba(63, 63, 63, 1)" stroke-width="1.5"></path><path d="M1461.73 369.25L1604.95 501.25" stroke="rgba(63, 63, 63, 1)" stroke-width="1.5"></path><path d="M1461.73 369.25L1261.62 230.45" stroke="rgba(63, 63, 63, 1)" stroke-width="1.5"></path><path d="M1400.05 552.06L1400.05 552.06" stroke="rgba(63, 63, 63, 1)" stroke-width="1.5"></path><path d="M1400.05 552.06L1394.17 656.94" stroke="rgba(63, 63, 63, 1)" stroke-width="1.5"></path><path d="M1400.05 552.06L1604.95 501.25" stroke="rgba(63, 63, 63, 1)" stroke-width="1.5"></path><path d="M1394.17 656.94L1394.17 656.94" stroke="rgba(63, 63, 63, 1)" stroke-width="1.5"></path><path d="M1394.17 656.94L1588.21 650.59" stroke="rgba(63, 63, 63, 1)" stroke-width="1.5"></path><path d="M1394.17 656.94L1604.95 501.25" stroke="rgba(63, 63, 63, 1)" stroke-width="1.5"></path><path d="M1560.49 -74.5L1560.49 -74.5" stroke="rgba(63, 63, 63, 1)" stroke-width="1.5"></path><path d="M1560.49 -74.5L1410.36 99.35" stroke="rgba(63, 63, 63, 1)" stroke-width="1.5"></path><path d="M1560.49 -74.5L1557.66 218.18" stroke="rgba(63, 63, 63, 1)" stroke-width="1.5"></path><path d="M1557.66 218.18L1557.66 218.18" stroke="rgba(63, 63, 63, 1)" stroke-width="1.5"></path><path d="M1557.66 218.18L1393.61 261.91" stroke="rgba(63, 63, 63, 1)" stroke-width="1.5"></path><path d="M1604.95 501.25L1604.95 501.25" stroke="rgba(63, 63, 63, 1)" stroke-width="1.5"></path><path d="M1604.95 501.25L1588.21 650.59" stroke="rgba(63, 63, 63, 1)" stroke-width="1.5"></path><path d="M1604.95 501.25L1557.66 218.18" stroke="rgba(63, 63, 63, 1)" stroke-width="1.5"></path><path d="M1604.95 501.25L1393.61 261.91" stroke="rgba(63, 63, 63, 1)" stroke-width="1.5"></path><path d="M1588.21 650.59L1588.21 650.59" stroke="rgba(63, 63, 63, 1)" stroke-width="1.5"></path><path d="M1588.21 650.59L1400.05 552.06" stroke="rgba(63, 63, 63, 1)" stroke-width="1.5"></path><circle r="5" cx="-38.05" cy="409.12" fill="rgba(63, 63, 63, 1)"></circle><circle r="5" cx="-41.15" cy="504.07" fill="rgba(63, 63, 63, 1)"></circle><circle r="5" cx="-83.63" cy="656.67" fill="rgba(63, 63, 63, 1)"></circle><circle r="5" cx="103.32" cy="380.44" fill="rgba(63, 63, 63, 1)"></circle><circle r="5" cx="99.14" cy="511.34" fill="rgba(63, 63, 63, 1)"></circle><circle r="5" cx="110.37" cy="669.9" fill="rgba(63, 63, 63, 1)"></circle><circle r="5" cx="245.6" cy="395.35" fill="rgba(63, 63, 63, 1)"></circle><circle r="5" cx="217.42" cy="491.92" fill="rgba(63, 63, 63, 1)"></circle><circle r="5" cx="244.01" cy="709.04" fill="rgba(63, 63, 63, 1)"></circle><circle r="5" cx="404.99" cy="341.45" fill="rgba(63, 63, 63, 1)"></circle><circle r="5" cx="337.94" cy="489.13" fill="rgba(63, 63, 63, 1)"></circle><circle r="5" cx="387.1" cy="704.19" fill="rgba(63, 63, 63, 1)"></circle><circle r="5" cx="536.13" cy="342.8" fill="rgba(63, 63, 63, 1)"></circle><circle r="5" cx="489.32" cy="543.83" fill="rgba(63, 63, 63, 1)"></circle><circle r="5" cx="672.89" cy="223.49" fill="rgba(63, 63, 63, 1)"></circle><circle r="5" cx="689.42" cy="368.31" fill="rgba(63, 63, 63, 1)"></circle><circle r="5" cx="640.67" cy="559.74" fill="rgba(63, 63, 63, 1)"></circle><circle r="5" cx="657.12" cy="642.48" fill="rgba(63, 63, 63, 1)"></circle><circle r="5" cx="817.03" cy="360.25" fill="rgba(63, 63, 63, 1)"></circle><circle r="5" cx="822.61" cy="561.71" fill="rgba(63, 63, 63, 1)"></circle><circle r="5" cx="808.3" cy="683.27" fill="rgba(63, 63, 63, 1)"></circle><circle r="5" cx="974.72" cy="-75.96" fill="rgba(63, 63, 63, 1)"></circle><circle r="5" cx="973.61" cy="91.81" fill="rgba(63, 63, 63, 1)"></circle><circle r="5" cx="965.35" cy="206.26" fill="rgba(63, 63, 63, 1)"></circle><circle r="5" cx="960.73" cy="357.4" fill="rgba(63, 63, 63, 1)"></circle><circle r="5" cx="1008" cy="561.56" fill="rgba(63, 63, 63, 1)"></circle><circle r="5" cx="980.33" cy="704.12" fill="rgba(63, 63, 63, 1)"></circle><circle r="5" cx="1111.3" cy="-103.26" fill="rgba(63, 63, 63, 1)"></circle><circle r="5" cx="1132.18" cy="57.72" fill="rgba(63, 63, 63, 1)"></circle><circle r="5" cx="1145.63" cy="217.8" fill="rgba(63, 63, 63, 1)"></circle><circle r="5" cx="1094.76" cy="385.23" fill="rgba(63, 63, 63, 1)"></circle><circle r="5" cx="1123.37" cy="508.64" fill="rgba(63, 63, 63, 1)"></circle><circle r="5" cx="1140.15" cy="655.1" fill="rgba(63, 63, 63, 1)"></circle><circle r="5" cx="1271.62" cy="-52.46" fill="rgba(63, 63, 63, 1)"></circle><circle r="5" cx="1267.67" cy="40.96" fill="rgba(63, 63, 63, 1)"></circle><circle r="5" cx="1261.62" cy="230.45" fill="rgba(63, 63, 63, 1)"></circle><circle r="5" cx="1275.07" cy="379.53" fill="rgba(63, 63, 63, 1)"></circle><circle r="5" cx="1270.63" cy="678.59" fill="rgba(63, 63, 63, 1)"></circle><circle r="5" cx="1410.36" cy="99.35" fill="rgba(63, 63, 63, 1)"></circle><circle r="5" cx="1393.61" cy="261.91" fill="rgba(63, 63, 63, 1)"></circle><circle r="5" cx="1461.73" cy="369.25" fill="rgba(63, 63, 63, 1)"></circle><circle r="5" cx="1400.05" cy="552.06" fill="rgba(63, 63, 63, 1)"></circle><circle r="5" cx="1394.17" cy="656.94" fill="rgba(63, 63, 63, 1)"></circle><circle r="5" cx="1560.49" cy="-74.5" fill="rgba(63, 63, 63, 1)"></circle><circle r="5" cx="1557.66" cy="218.18" fill="rgba(63, 63, 63, 1)"></circle><circle r="5" cx="1604.95" cy="501.25" fill="rgba(63, 63, 63, 1)"></circle><circle r="5" cx="1588.21" cy="650.59" fill="rgba(63, 63, 63, 1)"></circle><path d="M210.75 542.55L210.75 542.55" stroke="hsl(0, 0%, 100%)" stroke-width="1.5"></path><path d="M210.75 542.55L86.99 538.12" stroke="hsl(0, 0%, 100%)" stroke-width="1.5"></path><path d="M210.75 542.55L233.31 692.34" stroke="hsl(0, 0%, 100%)" stroke-width="1.5"></path><path d="M384.82 527.58L384.82 527.58" stroke="hsl(0, 0%, 100%)" stroke-width="1.5"></path><path d="M384.82 527.58L526.4 522.59" stroke="hsl(0, 0%, 100%)" stroke-width="1.5"></path><path d="M384.82 527.58L496.58 657.87" stroke="hsl(0, 0%, 100%)" stroke-width="1.5"></path><path d="M384.82 527.58L210.75 542.55" stroke="hsl(0, 0%, 100%)" stroke-width="1.5"></path><path d="M496.58 657.87L496.58 657.87" stroke="hsl(0, 0%, 100%)" stroke-width="1.5"></path><path d="M496.58 657.87L526.4 522.59" stroke="hsl(0, 0%, 100%)" stroke-width="1.5"></path><path d="M496.58 657.87L643.32 663.33" stroke="hsl(0, 0%, 100%)" stroke-width="1.5"></path><path d="M805.75 701.51L805.75 701.51" stroke="hsl(0, 0%, 100%)" stroke-width="1.5"></path><path d="M805.75 701.51L643.32 663.33" stroke="hsl(0, 0%, 100%)" stroke-width="1.5"></path><path d="M805.75 701.51L805.42 526.58" stroke="hsl(0, 0%, 100%)" stroke-width="1.5"></path><path d="M805.75 701.51L1010.62 692.5" stroke="hsl(0, 0%, 100%)" stroke-width="1.5"></path><path d="M805.75 701.51L952.18 508.7" stroke="hsl(0, 0%, 100%)" stroke-width="1.5"></path><path d="M1114.28 410.84L1114.28 410.84" stroke="hsl(0, 0%, 100%)" stroke-width="1.5"></path><path d="M1114.28 410.84L1283.97 348.02" stroke="hsl(0, 0%, 100%)" stroke-width="1.5"></path><path d="M1114.28 410.84L952.18 508.7" stroke="hsl(0, 0%, 100%)" stroke-width="1.5"></path><path d="M1114.28 410.84L1278.31 536.38" stroke="hsl(0, 0%, 100%)" stroke-width="1.5"></path><path d="M1159.05 680.38L1159.05 680.38" stroke="hsl(0, 0%, 100%)" stroke-width="1.5"></path><path d="M1159.05 680.38L1279.9 667.75" stroke="hsl(0, 0%, 100%)" stroke-width="1.5"></path><path d="M1159.05 680.38L1010.62 692.5" stroke="hsl(0, 0%, 100%)" stroke-width="1.5"></path><path d="M1159.05 680.38L1278.31 536.38" stroke="hsl(0, 0%, 100%)" stroke-width="1.5"></path><path d="M1159.05 680.38L1417.73 665.31" stroke="hsl(0, 0%, 100%)" stroke-width="1.5"></path><path d="M1302.4 233.85L1302.4 233.85" stroke="hsl(0, 0%, 100%)" stroke-width="1.5"></path><path d="M1302.4 233.85L1283.97 348.02" stroke="hsl(0, 0%, 100%)" stroke-width="1.5"></path><path d="M1302.4 233.85L1309.64 102.59" stroke="hsl(0, 0%, 100%)" stroke-width="1.5"></path><path d="M1302.4 233.85L1454.23 215.03" stroke="hsl(0, 0%, 100%)" stroke-width="1.5"></path><path d="M1302.4 233.85L1439.57 363.32" stroke="hsl(0, 0%, 100%)" stroke-width="1.5"></path><path d="M1302.4 233.85L1101.79 189.48" stroke="hsl(0, 0%, 100%)" stroke-width="1.5"></path><path d="M1302.4 233.85L1391.57 40.69" stroke="hsl(0, 0%, 100%)" stroke-width="1.5"></path><path d="M1279.9 667.75L1279.9 667.75" stroke="hsl(0, 0%, 100%)" stroke-width="1.5"></path><path d="M1279.9 667.75L1278.31 536.38" stroke="hsl(0, 0%, 100%)" stroke-width="1.5"></path><path d="M1417.73 665.31L1417.73 665.31" stroke="hsl(0, 0%, 100%)" stroke-width="1.5"></path><path d="M1417.73 665.31L1395.24 554.62" stroke="hsl(0, 0%, 100%)" stroke-width="1.5"></path><path d="M1417.73 665.31L1537.73 646.69" stroke="hsl(0, 0%, 100%)" stroke-width="1.5"></path><path d="M1417.73 665.31L1279.9 667.75" stroke="hsl(0, 0%, 100%)" stroke-width="1.5"></path><path d="M1417.73 665.31L1278.31 536.38" stroke="hsl(0, 0%, 100%)" stroke-width="1.5"></path><path d="M1417.73 665.31L1588.45 562.03" stroke="hsl(0, 0%, 100%)" stroke-width="1.5"></path><path d="M-95.15 494.82L-95.15 494.82" stroke="hsl(0, 0%, 100%)" stroke-width="1.5"></path><path d="M-95.15 494.82L-87.87 665.55" stroke="hsl(0, 0%, 100%)" stroke-width="1.5"></path><path d="M-95.15 494.82L86.99 538.12" stroke="hsl(0, 0%, 100%)" stroke-width="1.5"></path><path d="M-95.15 494.82L62.45 661.89" stroke="hsl(0, 0%, 100%)" stroke-width="1.5"></path><path d="M-95.15 494.82L210.75 542.55" stroke="hsl(0, 0%, 100%)" stroke-width="1.5"></path><path d="M-87.87 665.55L-87.87 665.55" stroke="hsl(0, 0%, 100%)" stroke-width="1.5"></path><path d="M-87.87 665.55L62.45 661.89" stroke="hsl(0, 0%, 100%)" stroke-width="1.5"></path><path d="M86.99 538.12L86.99 538.12" stroke="hsl(0, 0%, 100%)" stroke-width="1.5"></path><path d="M86.99 538.12L62.45 661.89" stroke="hsl(0, 0%, 100%)" stroke-width="1.5"></path><path d="M86.99 538.12L233.31 692.34" stroke="hsl(0, 0%, 100%)" stroke-width="1.5"></path><path d="M62.45 661.89L62.45 661.89" stroke="hsl(0, 0%, 100%)" stroke-width="1.5"></path><path d="M233.31 692.34L233.31 692.34" stroke="hsl(0, 0%, 100%)" stroke-width="1.5"></path><path d="M233.31 692.34L62.45 661.89" stroke="hsl(0, 0%, 100%)" stroke-width="1.5"></path><path d="M233.31 692.34L384.82 527.58" stroke="hsl(0, 0%, 100%)" stroke-width="1.5"></path><path d="M233.31 692.34L496.58 657.87" stroke="hsl(0, 0%, 100%)" stroke-width="1.5"></path><path d="M526.4 522.59L526.4 522.59" stroke="hsl(0, 0%, 100%)" stroke-width="1.5"></path><path d="M526.4 522.59L643.32 663.33" stroke="hsl(0, 0%, 100%)" stroke-width="1.5"></path><path d="M526.4 522.59L805.42 526.58" stroke="hsl(0, 0%, 100%)" stroke-width="1.5"></path><path d="M526.4 522.59L210.75 542.55" stroke="hsl(0, 0%, 100%)" stroke-width="1.5"></path><path d="M526.4 522.59L826.79 403.36" stroke="hsl(0, 0%, 100%)" stroke-width="1.5"></path><path d="M643.32 663.33L643.32 663.33" stroke="hsl(0, 0%, 100%)" stroke-width="1.5"></path><path d="M643.32 663.33L805.42 526.58" stroke="hsl(0, 0%, 100%)" stroke-width="1.5"></path><path d="M643.32 663.33L384.82 527.58" stroke="hsl(0, 0%, 100%)" stroke-width="1.5"></path><path d="M643.32 663.33L826.79 403.36" stroke="hsl(0, 0%, 100%)" stroke-width="1.5"></path><path d="M826.79 403.36L826.79 403.36" stroke="hsl(0, 0%, 100%)" stroke-width="1.5"></path><path d="M826.79 403.36L805.42 526.58" stroke="hsl(0, 0%, 100%)" stroke-width="1.5"></path><path d="M826.79 403.36L952.18 508.7" stroke="hsl(0, 0%, 100%)" stroke-width="1.5"></path><path d="M826.79 403.36L1114.28 410.84" stroke="hsl(0, 0%, 100%)" stroke-width="1.5"></path><path d="M826.79 403.36L805.75 701.51" stroke="hsl(0, 0%, 100%)" stroke-width="1.5"></path><path d="M805.42 526.58L805.42 526.58" stroke="hsl(0, 0%, 100%)" stroke-width="1.5"></path><path d="M805.42 526.58L952.18 508.7" stroke="hsl(0, 0%, 100%)" stroke-width="1.5"></path><path d="M805.42 526.58L1010.62 692.5" stroke="hsl(0, 0%, 100%)" stroke-width="1.5"></path><path d="M952.18 508.7L952.18 508.7" stroke="hsl(0, 0%, 100%)" stroke-width="1.5"></path><path d="M952.18 508.7L1010.62 692.5" stroke="hsl(0, 0%, 100%)" stroke-width="1.5"></path><path d="M1010.62 692.5L1010.62 692.5" stroke="hsl(0, 0%, 100%)" stroke-width="1.5"></path><path d="M1010.62 692.5L1279.9 667.75" stroke="hsl(0, 0%, 100%)" stroke-width="1.5"></path><path d="M1101.79 189.48L1101.79 189.48" stroke="hsl(0, 0%, 100%)" stroke-width="1.5"></path><path d="M1101.79 189.48L1114.28 410.84" stroke="hsl(0, 0%, 100%)" stroke-width="1.5"></path><path d="M1101.79 189.48L1309.64 102.59" stroke="hsl(0, 0%, 100%)" stroke-width="1.5"></path><path d="M1309.64 102.59L1309.64 102.59" stroke="hsl(0, 0%, 100%)" stroke-width="1.5"></path><path d="M1309.64 102.59L1391.57 40.69" stroke="hsl(0, 0%, 100%)" stroke-width="1.5"></path><path d="M1309.64 102.59L1454.23 215.03" stroke="hsl(0, 0%, 100%)" stroke-width="1.5"></path><path d="M1283.97 348.02L1283.97 348.02" stroke="hsl(0, 0%, 100%)" stroke-width="1.5"></path><path d="M1283.97 348.02L1439.57 363.32" stroke="hsl(0, 0%, 100%)" stroke-width="1.5"></path><path d="M1283.97 348.02L1278.31 536.38" stroke="hsl(0, 0%, 100%)" stroke-width="1.5"></path><path d="M1283.97 348.02L1454.23 215.03" stroke="hsl(0, 0%, 100%)" stroke-width="1.5"></path><path d="M1283.97 348.02L1395.24 554.62" stroke="hsl(0, 0%, 100%)" stroke-width="1.5"></path><path d="M1278.31 536.38L1278.31 536.38" stroke="hsl(0, 0%, 100%)" stroke-width="1.5"></path><path d="M1278.31 536.38L1395.24 554.62" stroke="hsl(0, 0%, 100%)" stroke-width="1.5"></path><path d="M1415.53 -103.58L1415.53 -103.58" stroke="hsl(0, 0%, 100%)" stroke-width="1.5"></path><path d="M1415.53 -103.58L1540.01 -85.62" stroke="hsl(0, 0%, 100%)" stroke-width="1.5"></path><path d="M1415.53 -103.58L1391.57 40.69" stroke="hsl(0, 0%, 100%)" stroke-width="1.5"></path><path d="M1415.53 -103.58L1309.64 102.59" stroke="hsl(0, 0%, 100%)" stroke-width="1.5"></path><path d="M1415.53 -103.58L1549.39 109.05" stroke="hsl(0, 0%, 100%)" stroke-width="1.5"></path><path d="M1415.53 -103.58L1454.23 215.03" stroke="hsl(0, 0%, 100%)" stroke-width="1.5"></path><path d="M1391.57 40.69L1391.57 40.69" stroke="hsl(0, 0%, 100%)" stroke-width="1.5"></path><path d="M1454.23 215.03L1454.23 215.03" stroke="hsl(0, 0%, 100%)" stroke-width="1.5"></path><path d="M1454.23 215.03L1557.22 196.06" stroke="hsl(0, 0%, 100%)" stroke-width="1.5"></path><path d="M1454.23 215.03L1549.39 109.05" stroke="hsl(0, 0%, 100%)" stroke-width="1.5"></path><path d="M1454.23 215.03L1439.57 363.32" stroke="hsl(0, 0%, 100%)" stroke-width="1.5"></path><path d="M1439.57 363.32L1439.57 363.32" stroke="hsl(0, 0%, 100%)" stroke-width="1.5"></path><path d="M1439.57 363.32L1544.95 378.91" stroke="hsl(0, 0%, 100%)" stroke-width="1.5"></path><path d="M1395.24 554.62L1395.24 554.62" stroke="hsl(0, 0%, 100%)" stroke-width="1.5"></path><path d="M1540.01 -85.62L1540.01 -85.62" stroke="hsl(0, 0%, 100%)" stroke-width="1.5"></path><path d="M1540.01 -85.62L1549.39 109.05" stroke="hsl(0, 0%, 100%)" stroke-width="1.5"></path><path d="M1549.39 109.05L1549.39 109.05" stroke="hsl(0, 0%, 100%)" stroke-width="1.5"></path><path d="M1549.39 109.05L1557.22 196.06" stroke="hsl(0, 0%, 100%)" stroke-width="1.5"></path><path d="M1549.39 109.05L1391.57 40.69" stroke="hsl(0, 0%, 100%)" stroke-width="1.5"></path><path d="M1549.39 109.05L1309.64 102.59" stroke="hsl(0, 0%, 100%)" stroke-width="1.5"></path><path d="M1557.22 196.06L1557.22 196.06" stroke="hsl(0, 0%, 100%)" stroke-width="1.5"></path><path d="M1557.22 196.06L1544.95 378.91" stroke="hsl(0, 0%, 100%)" stroke-width="1.5"></path><path d="M1557.22 196.06L1439.57 363.32" stroke="hsl(0, 0%, 100%)" stroke-width="1.5"></path><path d="M1544.95 378.91L1544.95 378.91" stroke="hsl(0, 0%, 100%)" stroke-width="1.5"></path><path d="M1544.95 378.91L1454.23 215.03" stroke="hsl(0, 0%, 100%)" stroke-width="1.5"></path><path d="M1588.45 562.03L1588.45 562.03" stroke="hsl(0, 0%, 100%)" stroke-width="1.5"></path><path d="M1588.45 562.03L1537.73 646.69" stroke="hsl(0, 0%, 100%)" stroke-width="1.5"></path><path d="M1588.45 562.03L1544.95 378.91" stroke="hsl(0, 0%, 100%)" stroke-width="1.5"></path><path d="M1588.45 562.03L1395.24 554.62" stroke="hsl(0, 0%, 100%)" stroke-width="1.5"></path><path d="M1588.45 562.03L1439.57 363.32" stroke="hsl(0, 0%, 100%)" stroke-width="1.5"></path><path d="M1537.73 646.69L1537.73 646.69" stroke="hsl(0, 0%, 100%)" stroke-width="1.5"></path><path d="M1537.73 646.69L1395.24 554.62" stroke="hsl(0, 0%, 100%)" stroke-width="1.5"></path><path d="M1537.73 646.69L1279.9 667.75" stroke="hsl(0, 0%, 100%)" stroke-width="1.5"></path><path d="M1537.73 646.69L1544.95 378.91" stroke="hsl(0, 0%, 100%)" stroke-width="1.5"></path><circle r="25" cx="210.75" cy="542.55" fill="url(#SvgjsRadialGradient1009)"></circle><circle r="25" cx="384.82" cy="527.58" fill="url(#SvgjsRadialGradient1009)"></circle><circle r="25" cx="496.58" cy="657.87" fill="url(#SvgjsRadialGradient1009)"></circle><circle r="25" cx="805.75" cy="701.51" fill="url(#SvgjsRadialGradient1009)"></circle><circle r="25" cx="1114.28" cy="410.84" fill="url(#SvgjsRadialGradient1009)"></circle><circle r="25" cx="1159.05" cy="680.38" fill="url(#SvgjsRadialGradient1009)"></circle><circle r="25" cx="1302.4" cy="233.85" fill="url(#SvgjsRadialGradient1009)"></circle><circle r="25" cx="1279.9" cy="667.75" fill="url(#SvgjsRadialGradient1009)"></circle><circle r="25" cx="1417.73" cy="665.31" fill="url(#SvgjsRadialGradient1009)"></circle><circle r="5" cx="-95.15" cy="494.82" fill="#e4e4e4"></circle><circle r="5" cx="-87.87" cy="665.55" fill="#e4e4e4"></circle><circle r="5" cx="86.99" cy="538.12" fill="#e4e4e4"></circle><circle r="5" cx="62.45" cy="661.89" fill="#e4e4e4"></circle><circle r="5" cx="233.31" cy="692.34" fill="#e4e4e4"></circle><circle r="5" cx="526.4" cy="522.59" fill="#e4e4e4"></circle><circle r="5" cx="643.32" cy="663.33" fill="#e4e4e4"></circle><circle r="5" cx="826.79" cy="403.36" fill="#e4e4e4"></circle><circle r="5" cx="805.42" cy="526.58" fill="#e4e4e4"></circle><circle r="5" cx="952.18" cy="508.7" fill="#e4e4e4"></circle><circle r="5" cx="1010.62" cy="692.5" fill="#e4e4e4"></circle><circle r="5" cx="1101.79" cy="189.48" fill="#e4e4e4"></circle><circle r="5" cx="1309.64" cy="102.59" fill="#e4e4e4"></circle><circle r="5" cx="1283.97" cy="348.02" fill="#e4e4e4"></circle><circle r="5" cx="1278.31" cy="536.38" fill="#e4e4e4"></circle><circle r="5" cx="1415.53" cy="-103.58" fill="#e4e4e4"></circle><circle r="5" cx="1391.57" cy="40.69" fill="#e4e4e4"></circle><circle r="5" cx="1454.23" cy="215.03" fill="#e4e4e4"></circle><circle r="5" cx="1439.57" cy="363.32" fill="#e4e4e4"></circle><circle r="5" cx="1395.24" cy="554.62" fill="#e4e4e4"></circle><circle r="5" cx="1540.01" cy="-85.62" fill="#e4e4e4"></circle><circle r="5" cx="1549.39" cy="109.05" fill="#e4e4e4"></circle><circle r="5" cx="1557.22" cy="196.06" fill="#e4e4e4"></circle><circle r="5" cx="1544.95" cy="378.91" fill="#e4e4e4"></circle><circle r="5" cx="1588.45" cy="562.03" fill="#e4e4e4"></circle><circle r="5" cx="1537.73" cy="646.69" fill="#e4e4e4"></circle></g><defs><mask id="SvgjsMask1008"><rect width="1440" height="560" fill="#ffffff"></rect></mask><radialGradient id="SvgjsRadialGradient1009"><stop stop-color="#ffffff" offset="0.1"></stop><stop stop-color="rgba(201, 201, 201, 1)" offset="0.2"></stop><stop stop-color="rgba(201, 201, 201, 0)" offset="1"></stop></radialGradient></defs></svg>