<svg xmlns="http://www.w3.org/2000/svg" version="1.1" xmlns:xlink="http://www.w3.org/1999/xlink" xmlns:svgjs="http://svgjs.com/svgjs" width="1440" height="560" preserveAspectRatio="none" viewBox="0 0 1440 560"><g mask="url(&quot;#SvgjsMask1004&quot;)" fill="none"><circle r="6.785" cx="1409.565" cy="497.20500000000004" filter="url(#SvgjsFilter1005)" fill="rgba(173, 173, 173, 0.58)"></circle><circle r="5.325" cx="76.36500000000001" cy="116.375" filter="url(#SvgjsFilter1005)" fill="rgba(173, 173, 173, 0.58)"></circle><circle r="5.87" cx="143.94" cy="434.69" filter="url(#SvgjsFilter1005)" fill="rgba(173, 173, 173, 0.58)"></circle><circle r="9.12" cx="1304.9099999999999" cy="527.88" filter="url(#SvgjsFilter1005)" fill="rgba(173, 173, 173, 0.58)"></circle><circle r="9.195" cx="956.1750000000001" cy="543.335" filter="url(#SvgjsFilter1005)" fill="rgba(173, 173, 173, 0.58)"></circle><circle r="7.08" cx="661.0400000000001" cy="475.99" filter="url(#SvgjsFilter1005)" fill="rgba(173, 173, 173, 0.58)"></circle><circle r="7.935" cx="587.285" cy="14.934999999999999" filter="url(#SvgjsFilter1005)" fill="rgba(173, 173, 173, 0.58)"></circle><circle r="5.105" cx="1348.155" cy="400.71500000000003" filter="url(#SvgjsFilter1005)" fill="rgba(173, 173, 173, 0.58)"></circle><circle r="4.69" cx="553.1700000000001" cy="40.25" filter="url(#SvgjsFilter1005)" fill="rgba(173, 173, 173, 0.58)"></circle><circle r="7.835" cx="580.865" cy="432.78499999999997" filter="url(#SvgjsFilter1005)" fill="rgba(173, 173, 173, 0.58)"></circle><circle r="4.83" cx="1209.1499999999999" cy="466.4" filter="url(#SvgjsFilter1005)" fill="rgba(173, 173, 173, 0.58)"></circle><circle r="8.605" cx="492.045" cy="461.255" filter="url(#SvgjsFilter1005)" fill="rgba(173, 173, 173, 0.58)"></circle><circle r="8.285" cx="1144.6850000000002" cy="25.845" filter="url(#SvgjsFilter1005)" fill="rgba(173, 173, 173, 0.58)"></circle><circle r="5.725" cx="715.1850000000001" cy="19.285" filter="url(#SvgjsFilter1005)" fill="rgba(173, 173, 173, 0.58)"></circle><circle r="8.7" cx="1132.57" cy="488.28" filter="url(#SvgjsFilter1005)" fill="rgba(173, 173, 173, 0.58)"></circle><circle r="7.395" cx="1295.215" cy="421.325" filter="url(#SvgjsFilter1005)" fill="rgba(173, 173, 173, 0.58)"></circle><circle r="7.75" cx="1445.28" cy="9.21" filter="url(#SvgjsFilter1005)" fill="rgba(173, 173, 173, 0.58)"></circle><circle r="8.695" cx="1444.865" cy="232.17499999999998" filter="url(#SvgjsFilter1005)" fill="rgba(173, 173, 173, 0.58)"></circle><circle r="7.975" cx="267.795" cy="437.755" filter="url(#SvgjsFilter1005)" fill="rgba(173, 173, 173, 0.58)"></circle><circle r="8.42" cx="958.62" cy="214.2" filter="url(#SvgjsFilter1005)" fill="rgba(173, 173, 173, 0.58)"></circle><path d="M685.2 542.7L727.3 513.8 745.6 517.6 731.4 527.3C729.5 528 729.6 530 730.2 531.8 731.2 532.8 733.5 533.4 734.5 532.4L754.3 519.4 772.4 522.6 760.2 536.3 736.4 537.8C736.4 537.8 735.8 538 735.8 538 734.5 538.4 733.8 540.1 733.6 541.5 734.2 543.3 735.2 544.3 737.2 544.3L754.4 543 742.3 556.8 691.5 560.9C691.5 560.9 690.7 560.5 690.7 560.5 689.5 560.9 688.7 562.5 688.5 563.9 688.5 566 690.4 567.3 692.2 566.7L736.5 563.5 722.1 580.7 702.3 582.2C702.3 582.2 702.3 582.2 701.7 582.4 700.5 582.8 699.5 583.8 699.3 585.2 700 587.1 701.2 588.7 703.2 588.6L716.4 587.5 705.8 599.9C704.2 601.2 704.8 603 705.8 604 707.1 605.6 709.1 605.6 710.5 603.7L721.3 591.8 721.6 604.6C722.3 606.4 723.5 608 725.3 607.4 727.3 607.3 728.3 606.3 728.3 604.3L726.8 584.5 741.4 567.9 744.8 612.8C744.6 614.2 746.5 615.6 748.5 615.6 749.7 615.2 751.3 613.9 751.3 611.9L747.2 561.1 759.4 547.4 760.6 564.6C760.6 566.6 762.2 567.4 764.3 567.4 765.7 567.6 767.1 565.7 767.3 564.3L765.1 540.7 777.1 526.3 783.2 543.9 772.9 565.1C772.2 566.7 772.8 568.5 774.4 569.3 775.4 570.3 777.9 569.4 778.6 567.8L786.1 552.3 792.2 569.9 769.5 615.7C768.8 617.3 769.4 619.1 771 619.9 772.7 620.7 774.5 620.1 775.3 618.5L795.2 578.3 802.3 598.9 793.7 616.8C792.9 618.4 793.5 620.2 795.1 621 796.8 621.8 798.6 621.2 799.4 619.6L805.5 607.9 810.7 623.1C811.4 624.9 813 625.7 814.8 625 816.6 624.4 817.4 622.8 816.8 621L811.5 605.8 822.9 611.4C824.6 612.2 826.4 611.5 827.2 609.9S827.3 606.5 825.7 605.7L808.6 597.4 801.2 576.2 841.1 595.5C842.8 596.3 844.6 595.7 845.4 594.1 846.2 592.4 845.5 590.6 843.9 589.8L798.3 567.8 792.2 550.2 807.7 557.7C809.3 558.5 811.1 557.9 811.9 556.3 812.7 554.6 812 552.8 810.4 552L789.2 541.8 783.3 524.8 800.8 528.3 814.4 547.9C815.4 548.9 817.7 549.5 818.7 548.5 820.3 547.2 820.5 545.8 819.8 544L810.1 529.8 827.6 533.2 856.5 575.3C857.7 576.9 859.1 577.1 860.9 576.5 862.5 575.2 862.5 573.2 862.1 572L836.9 534.7 858.8 539.2 869.8 555.1C870.4 556.9 872.4 556.9 874.2 556.3 875.2 555.2 875.8 553 874.6 551.4L867.6 541 883.4 543.6C885 544.4 886.6 543.1 887.2 540.9 887.4 539.5 886.1 537.9 884.7 537.7L868.7 534.5 879.7 527.2C881.3 526 881.3 524 880.3 523 879.6 521.2 878.2 521 877 521.4 876.4 521.6 876.4 521.6 875.8 521.8L860 532.8 838 528.2 874.8 503.2C876.6 502.6 876.5 500.6 875.9 498.7 874.9 497.7 873.5 497.6 872.3 498 871.7 498.2 871.7 498.2 871.7 498.2L828.7 526.7 811.3 523.3 825.5 513.6C827.1 512.3 827.3 510.9 826.7 509.1 825.6 508.1 824 507.3 822.8 507.7 822.2 507.9 822.2 507.9 821.6 508.2L801.9 521.8 784.5 518.4 796 504.8 819.7 502.7C821.7 502.7 823.1 500.9 823.3 499.4 822.7 497.6 821.4 496 819.6 496.6L802.4 497.9 813.8 483.8 865.3 480.1C866.8 480.2 868.2 478.4 868.3 477 867.7 475.2 866.5 473.6 864.5 473.6L820.2 476.8 834.7 460.2 853.9 459C856 458.9 857.4 457.1 856.7 455.3 856.9 453.9 855.7 452.3 853.6 452.3L840.5 453.5 851.1 441C852.1 440 852 437.9 850.8 436.3 850 435.9 848.6 435.8 847.4 436.2 847.4 436.2 846.8 436.4 846.2 436.6L835.6 449.1 834.4 435.9C834.6 434.5 832.8 433.1 831.3 432.9 830.7 433.2 830.7 433.2 830.7 433.2 828.9 433.8 828.1 435.4 828.5 436.6L829.8 455.8 815.5 473 812 428.1C811.4 426.3 810.4 425.3 808.4 425.3 808.4 425.3 807.8 425.6 807.8 425.6 806.6 426 805.6 427 805.6 429L809.1 480 797.5 493.5 796.3 476.3C795.6 474.5 794.4 472.9 792.6 473.5 792.4 472.9 791.8 473.1 791.8 473.1 790.6 473.5 789.8 475.2 789.6 476.6L791.7 500.2 779.6 514 773.7 497 783.9 475.9C784.7 474.2 783.9 471.8 782.2 471 780.8 470.8 779 471.5 778 472.5L770.7 488.6 764.6 471 786.7 425.4C787.5 423.8 786.9 422 785.2 421.2 783.6 420.4 781.8 421 781 422.7L761.7 462.6 754.3 441.4 762.6 424.3C763.4 422.7 762.8 420.9 761.1 420.1S757.7 419.9 756.9 421.6L751.4 433 746.1 417.9C745.5 416 743.9 415.3 742.1 415.9 740.2 416.5 739.5 418.1 740.1 420L745.3 435.1 733.3 429.8C732.5 429.4 731.7 429 731.1 429.2 730.5 429.4 729.5 430.4 729.1 431.2 728.3 432.9 728.9 434.7 730.6 435.5L748.3 443.5 755.6 464.7 715.1 445.6C714.3 445.2 713.5 444.8 712.9 445 712.3 445.2 711.3 446.2 710.9 447.1 710.1 448.7 710.7 450.5 712.4 451.3L758.6 473.2 764.7 490.7 749 482.6C748.2 482.2 747 482.6 746.4 482.8 745.8 483 745.2 483.2 744.8 484.1 744 485.7 744.8 488.1 746.2 488.3L767.6 499.1 773.5 516.1 755.5 512.9 742.5 493C741.4 492 739.8 491.2 738.6 491.6 738 491.8 738 491.8 738.2 492.4 736.4 493.1 735.8 495.3 737 496.9L746.7 511.2 728.7 507.9 700.2 465C699.2 464 697.7 463.8 696.5 464.2 695.9 464.5 695.9 464.5 695.9 464.5 694.3 465.7 693.5 467.3 694.8 468.9L720 506.2 698 501.7 687.1 485.8C685.9 484.2 684.4 484 683.2 484.5 683.2 484.5 682.6 484.7 682.6 484.7 681 485.9 681.1 487.9 681.5 489.1L689.3 500 673.3 496.7C672.7 496.9 672.1 497.1 671.5 497.4 670.9 497.6 669.9 498.6 669.5 499.4 669.5 501.4 670.1 503.2 672.1 503.2L688.2 506.5 677.1 513.7C675.5 514.9 675.6 516.9 676 518.1 677.2 519.8 679.2 519.7 681.1 519.1L696.9 508.2 718.6 512.1 681.9 537.1C680.3 538.3 679.7 540.6 680.7 541.6 682 543.2 683.6 544 685.2 542.7Z" fill="rgba(173, 173, 173, 0.58)"></path><path d="M961.6 384.1L960.8 364 973 369.9C974.2 370.6 976.2 370.1 977.5 368.5 977.8 366.7 977.3 364.8 976.1 364L960.2 356 959.5 337.4 991.7 353.9C993.8 354.8 995.7 354.3 996.1 352.6 997.4 351 996.9 349 994.7 348.1L959.3 329.9 958.2 313 991 291.8 1004.4 298.3 1006 340.8C1006.4 341.3 1006.7 341.9 1007.1 342.4 1007.4 342.9 1008.6 343.7 1009.5 343.8 1011.8 343.9 1013.1 342.3 1012.6 340.3L1011.1 301.6 1027.3 310.1 1028.7 329.9C1028.2 330.2 1028.5 330.8 1028.9 331.3 1029.5 332.4 1030.8 333.1 1032.2 332.9 1033.6 332.8 1034.9 331.2 1035.3 329.4L1034 313.4 1054.5 323.8C1055.7 324.5 1057.7 324 1059 322.4 1059.3 320.7 1058.8 318.7 1057.6 318L1038.4 308.3 1049.6 301C1051.2 300 1051.3 297.7 1050.6 296.6 1049.5 295 1047.4 294.1 1045.8 295.1L1031.3 304.5 1015.1 296 1045.1 276.5C1046.7 275.4 1047.1 273.6 1046.1 272 1045 270.4 1043.3 270 1041.6 271.1L1008.4 292.7 994.1 286 992.2 246.7 1004.6 238.7 1040.9 257.1C1042.5 258.3 1045 257.5 1045.4 255.7 1046.6 254.1 1045.6 252.5 1044 251.2L1011 234.5 1026.6 224.4 1042.8 232.9C1044.1 233.7 1046.5 232.8 1047.3 231.6S1047.1 227.8 1045.6 226.6L1033 220.2 1051.8 208C1053.4 207 1053.5 204.7 1052.4 203.1 1051.7 202 1049.6 201.1 1048 202.1L1029.2 214.3 1028.1 199.7C1028 198.3 1026.9 196.7 1024.6 196.7 1023.2 196.8 1021.4 198.8 1021.6 200.2L1022.8 218.5 1007.2 228.6 1005.3 191.7C1004.8 189.7 1003.8 188.1 1001.5 188.1 1000 188.2 998.2 190.2 998.4 191.6L1000.7 232.8 988.4 240.8 953.3 223.2 952.9 207.4 986.2 185.7C987.8 184.7 988.2 182.9 987.2 181.3 986.1 179.7 984 178.8 982.4 179.8L952.3 199.4 951.1 181.1 965.6 171.7C967.2 170.6 967.6 168.8 966.6 167.2 965.5 165.6 963.7 165.2 962.1 166.3L950.9 173.6 949.9 152.1C949.7 150.7 947.8 148.9 946.4 149.1 944.4 149.6 942.8 150.6 943.3 152.6L944.1 174.9 930.3 167.9C928.6 167.5 926.6 168 925.9 169.2 925.2 170.5 925.3 171.9 926 173 926 173 926.4 173.5 927.3 173.7L944.7 182.9 945.9 201.2 911.2 184.1C909.6 182.9 907.6 183.4 906.7 185.5 906.5 186.4 906.3 187.3 907 188.3 907.4 188.9 907.7 189.4 908.1 190L946.2 208.7 946.7 223.6 914 244.9 899 237.1 896.8 197.3C896.8 195 895.2 193.7 893.3 194.2 891.5 193.8 890.2 195.4 890.2 197.7L892.3 233.8 875.5 225.6 874.7 207.8C874.5 206.4 872.9 205.2 871.1 204.8 869.2 205.3 867.6 206.3 868.1 208.3L868.5 221.8 850.5 212.9C848.9 211.6 847.3 212.7 846 214.2 845.8 215.1 846 216.5 846.7 217.6 846.7 217.6 847 218.2 847.4 218.7L866.6 228.3 853.2 237C852.1 237.7 851.2 239.9 852.2 241.5 853.3 243.1 855.6 243.1 856.7 242.4L873.3 231.6 890.1 239.8 857.3 261.1C855.7 262.1 855.7 264.4 856.7 266S859.6 268 861.2 267L897.1 243.6 910.9 250.7 912.7 290 898.8 299 862.1 280.1C860.3 279.7 858.3 280.2 857.1 281.8 856.9 282.7 857.1 284.1 857.7 285.2 858.1 285.7 858.4 286.3 859.3 286.5L892.3 303.2 876.8 313.3 860 305.1C858.8 304.4 856.8 304.9 855.5 306.5 855.2 308.3 855.7 310.2 856.9 310.9L870.3 317.5 853.1 328.6C852.1 329.3 851.5 332 852.2 333.1 853.2 334.7 855.9 335.2 857 334.5L874.2 323.4 874.3 337.8C874.7 338.3 875 338.8 875.4 339.4 876.1 340.5 877.3 341.2 878.2 341.4 880.2 340.9 881.4 339.3 881.8 337.5L880.6 319.2 896.2 309.1 898 346C898 348.4 899.6 349.6 901 349.5 903.3 349.5 904.6 347.9 904.9 346.1L902.6 304.9 916.6 295.9 951.7 313.5 952.5 329 916.6 352.3C915 353.4 914.6 355.1 915.6 356.7 916.7 358.3 918.5 358.7 920.1 357.7L952.8 336.4 953.5 355.1 936.8 365.9C935.8 366.6 935.2 369.2 936.2 370.8 937.3 372.4 939.6 372.5 940.7 371.8L954.1 363.1 955.1 384.5C955.4 385.1 955.4 385.1 955.8 385.6 956.5 386.7 957.7 387.4 958.6 387.6 960.5 387.1 961.8 385.5 961.6 384.1ZM923 291.7L919.3 289.5 919.2 285.8 917.6 254 917.5 250.2 920.7 248.2 947 231.1 950.2 229 953.6 230.6 982 245 985.3 246.6 985.8 250.9 987 282.1 987.5 286.4 984.3 288.5 958 305.6 954.8 307.7 951.1 305.5 923 291.7Z" fill="rgba(173, 173, 173, 0.58)"></path><path d="M1105.5 337.7L1142.6 328.1 1154.5 335.5 1142 338.7C1140.5 338.7 1140 340.1 1140 341.5 1140.5 342.5 1141.9 343.5 1142.9 343L1160.2 338.9 1172.1 345.8 1160 352.4 1142.8 347.3C1142.8 347.3 1142.3 347.3 1142.3 347.3 1141.4 347.3 1140.4 348.3 1139.9 349.2 1139.9 350.7 1140.4 351.6 1141.8 352.1L1154.2 355.6 1142.1 362.2 1105.3 352.1C1105.3 352.1 1104.8 351.6 1104.8 351.6 1103.9 351.6 1102.9 352.6 1102.4 353.5 1101.9 355 1102.8 356.4 1104.3 356.4L1136.3 365.5 1121.8 373.9 1107.5 369.9C1107.5 369.9 1107.5 369.9 1107 369.9 1106 369.9 1105.1 370.4 1104.6 371.3 1104.6 372.8 1105 374.2 1106.5 374.7L1116 377.2 1105.4 383.3C1103.9 383.8 1103.9 385.2 1104.4 386.2 1104.8 387.6 1106.3 388.1 1107.7 387.2L1118.4 381.6 1115.4 390.7C1115.3 392.1 1115.8 393.5 1117.3 393.6 1118.7 394.1 1119.6 393.6 1120.1 392.2L1124.2 377.8 1138.7 369.8 1129.6 402.4C1129.1 403.3 1130.1 404.8 1131.5 405.3 1132.5 405.3 1133.9 404.8 1134.4 403.4L1144.5 366.6 1156.6 360 1153 372.4C1152.5 373.9 1153.5 374.8 1154.9 375.3 1155.9 375.8 1157.3 374.9 1157.8 373.9L1162.4 356.7 1174.5 349.7 1174.3 363.6 1161.6 375.9C1160.7 376.8 1160.7 378.3 1161.6 379.3 1162.1 380.2 1164 380.3 1165 379.3L1174.2 370.3 1174 384.2 1146.3 410.7C1145.3 411.7 1145.3 413.1 1146.3 414.1 1147.2 415.1 1148.7 415.1 1149.6 414.1L1173.9 390.9 1173.7 407.3 1163 417.7C1162.1 418.6 1162 420.1 1163 421 1163.9 422 1165.4 422 1166.3 421.1L1173.6 414.5 1173.5 426.5C1173.5 427.9 1174.4 428.9 1175.8 428.9 1177.3 428.9 1178.3 428 1178.3 426.5L1178.4 414.5 1185.1 421.3C1186 422.3 1187.4 422.3 1188.4 421.4S1189.4 419 1188.5 418L1178.5 407.8 1178.7 391 1201.9 414.8C1202.9 415.8 1204.3 415.8 1205.3 414.9 1206.3 413.9 1206.3 412.5 1205.3 411.5L1178.8 384.3 1179 370.4 1188 379.6C1188.9 380.6 1190.4 380.6 1191.4 379.6 1192.3 378.7 1192.3 377.3 1191.4 376.3L1179.1 363.6 1179.3 350.2 1190.7 357.1 1195.3 374.4C1195.7 375.4 1197.2 376.4 1198.1 375.9 1199.6 375.4 1200.1 374.5 1200.1 373L1196.9 360.5 1208.3 367.4 1217.9 404.5C1218.4 405.9 1219.3 406.4 1220.8 406.4 1222.2 406 1222.7 404.5 1222.7 403.6L1214.5 370.8 1228.8 379.6 1232.5 393.6C1232.4 395.1 1233.9 395.6 1235.3 395.6 1236.3 395.1 1237.3 393.7 1236.8 392.2L1234.5 383.1 1245 389C1245.9 390 1247.4 389.5 1248.4 388.1 1248.9 387.1 1248.4 385.7 1247.4 385.2L1237 378.8 1246.6 376.5C1248 376.1 1248.5 374.6 1248.1 373.7 1248.1 372.2 1247.1 371.7 1246.2 371.7 1245.7 371.7 1245.7 371.7 1245.2 371.7L1231.3 375.4 1217 366.5 1249.2 358.3C1250.7 358.3 1251.2 356.9 1251.2 355.5 1250.7 354.5 1249.8 354 1248.8 354 1248.3 354 1248.3 354 1248.3 354L1210.8 363.1 1199.3 356.2 1211.9 353C1213.3 352.6 1213.8 351.6 1213.8 350.2 1213.4 349.2 1212.4 348.2 1211.4 348.2 1211 348.2 1211 348.2 1210.5 348.2L1193.1 352.8 1181.7 345.9 1193.3 339.3 1210.5 343.9C1212 344.4 1213.4 343.4 1213.9 342.5 1213.9 341.1 1213.5 339.6 1212 339.6L1199.6 336.1 1211.2 329 1248.5 339.6C1249.5 340.1 1250.9 339.1 1251.4 338.2 1251.4 336.7 1251 335.3 1249.5 334.8L1217.5 325.7 1232 317.8 1245.9 321.8C1247.3 322.3 1248.8 321.3 1248.8 319.9 1249.3 318.9 1248.8 317.5 1247.4 317L1237.8 314.5 1248.4 308.4C1249.4 307.9 1249.9 306.5 1249.4 305 1249 304.5 1248 304 1247.1 304 1247.1 304 1246.6 304 1246.1 304L1235.5 310.1 1238 300.6C1238.5 299.6 1237.5 298.2 1236.6 297.7 1236.1 297.7 1236.1 297.7 1236.1 297.7 1234.7 297.6 1233.7 298.6 1233.7 299.5L1229.7 313.4 1215.1 321.9 1224.2 289.3C1224.2 287.9 1223.8 286.9 1222.3 286.4 1222.3 286.4 1221.8 286.4 1221.8 286.4 1220.9 286.4 1219.9 286.9 1219.4 288.3L1208.9 325.1 1197.3 331.7 1200.8 319.3C1200.8 317.8 1200.3 316.4 1198.9 316.4 1198.9 315.9 1198.4 315.9 1198.4 315.9 1197.5 315.9 1196.5 316.8 1196 317.8L1191.5 335 1179.4 341.6 1179.5 328.1 1192.2 315.8C1193.2 314.9 1193.2 312.9 1192.2 312 1191.3 311.5 1189.8 311.5 1188.9 311.9L1179.6 321.4 1179.8 307.5 1207 281C1208 280 1208 278.6 1207.1 277.6 1206.1 276.6 1204.7 276.6 1203.7 277.6L1179.9 300.8 1180.1 284 1190.3 274C1191.3 273.1 1191.3 271.6 1190.4 270.7S1188 269.7 1187 270.6L1180.2 277.3 1180.4 265.3C1180.4 263.8 1179.4 262.8 1178 262.8 1176.5 262.8 1175.6 263.8 1175.6 265.2L1175.4 277.2 1168.3 270.4C1167.8 269.9 1167.3 269.4 1166.9 269.4 1166.4 269.4 1165.4 269.9 1164.9 270.3 1164 271.3 1163.9 272.7 1164.9 273.7L1175.3 283.9 1175.1 300.7 1151.4 276.9C1150.9 276.4 1150.5 275.9 1150 275.9 1149.5 275.9 1148.5 276.4 1148 276.8 1147.1 277.8 1147 279.2 1148 280.2L1175 307.4 1174.8 321.3 1165.8 311.6C1165.4 311.1 1164.4 311.1 1163.9 311.1 1163.4 311.1 1163 311.1 1162.5 311.6 1161.5 312.5 1161.5 314.5 1162.4 314.9L1174.7 328.1 1174.6 341.5 1162.7 334.6 1158.6 317.3C1158.1 316.3 1157.1 315.4 1156.2 315.3 1155.7 315.3 1155.7 315.3 1155.7 315.8 1154.3 315.8 1153.3 317.2 1153.7 318.7L1156.9 331.2 1145 324.3 1135.9 286.8C1135.4 285.8 1134.5 285.3 1133.5 285.3 1133 285.3 1133 285.3 1133 285.3 1131.6 285.7 1130.6 286.7 1131.1 288.1L1139.3 320.9 1125 312.1 1121.4 298.1C1120.9 296.6 1119.9 296.2 1119 296.1 1119 296.1 1118.5 296.1 1118.5 296.1 1117.1 296.6 1116.6 298 1116.6 299L1119.3 308.6 1108.8 302.3C1108.3 302.2 1107.9 302.2 1107.4 302.2 1106.9 302.2 1105.9 302.7 1105.5 303.2 1105 304.6 1104.9 306 1106.4 306.5L1116.9 312.9 1107.2 315.2C1105.8 315.7 1105.3 317.1 1105.3 318 1105.7 319.5 1107.2 320 1108.6 320L1122.6 316.4 1136.9 324.7 1104.6 332.9C1103.1 333.4 1102.2 334.8 1102.6 335.8 1103.1 337.2 1104 338.2 1105.5 337.7Z" fill="rgba(173, 173, 173, 0.58)"></path><path d="M1352.7 181L1366.7 158.5 1373.7 156.7 1384.9 168.5 1382.9 175.7 1359.5 188.2C1359.3 188.4 1359.3 188.4 1359 188.7 1358.6 189.1 1358.3 189.8 1358.8 190.7 1359.4 191.4 1360.1 191.6 1361 191.2L1381.5 180.2 1378.2 191.2 1369.3 196.2C1369.3 196.2 1369 196.4 1369 196.4 1368.6 196.8 1368.3 197.5 1368.7 198.4 1368.9 199.1 1370.1 199.4 1371 199L1377 195.9 1374.5 204C1374.2 204.7 1374.7 205.6 1375.5 206.1S1377.4 205.7 1377.8 204.8L1380.1 196.9 1383.3 202.7C1383.8 203.6 1384.9 203.9 1385.8 203.4 1386.3 203 1386.8 202.1 1386.3 201.2L1381.4 192.2 1384.8 181 1395.8 201.4C1396.3 202.4 1397.4 202.6 1398.1 202.4 1398.8 201.7 1399.2 200.9 1398.8 199.9L1386.1 176.7 1388.3 169.3 1403.8 165.7 1409.1 171.2 1408.6 197.7C1408.6 198.6 1409.2 199.3 1410.1 199.3S1411.7 198.7 1411.8 197.8L1412.2 174.5 1420.3 183.1 1420 193C1420 193.9 1420.7 194.6 1421.8 194.9S1423.4 194.3 1423.4 193.4L1423.4 186.3 1429.3 192.6C1430 193.3 1431.1 193.1 1431.8 192.5 1432.5 191.8 1432.6 190.9 1431.9 190.2L1426 183.9 1432.7 184.1C1433.9 184.4 1434.6 183.7 1434.4 182.6 1434.4 181.7 1433.7 181 1432.8 180.9L1422.9 180.7 1414.7 172.1 1438 172.9C1438.9 173 1439.9 172.1 1439.9 171.2S1439.2 169.6 1438.3 169.5L1411.7 168.8 1406.4 163.2 1411.1 147.8 1418.4 146.1 1440.9 160.1C1441.8 160.6 1442.7 160.2 1443.4 159.5 1443.8 158.6 1443.4 157.7 1442.8 157L1422.9 144.9 1434.1 142.3 1442.8 147.7C1443.7 148.2 1444.6 147.8 1445.3 147.1 1445.5 146.4 1445.3 145.3 1444.4 144.8L1438.9 141.3 1447.1 139.2C1447.8 139 1448.3 138.1 1448.3 137.2 1447.8 136.3 1447 135.8 1446.3 136L1438.1 138.1 1441.6 132.1C1441.9 131.4 1441.7 130.3 1441 130 1440.3 129.3 1439.7 129.5 1439 130.2 1439 130.2 1438.7 130.4 1438.7 130.4L1433.3 139.1 1422.1 141.7 1434.2 121.9C1434.7 121 1434.7 120.1 1433.8 119.6 1432.9 119.2 1432.2 119.4 1431.8 119.8 1431.5 120 1431.5 120 1431.5 120L1417.6 143 1410.3 144.6 1399.1 132.7 1401.3 125.8 1424.7 112.8C1425.4 112.6 1425.7 111.5 1425.5 110.8 1425 109.9 1423.9 109.6 1423 110.1L1402.5 121 1405.8 110 1414.7 105.1C1415.7 104.6 1416.1 103.8 1415.5 103.1 1415.1 102.1 1413.9 101.9 1413.2 102.1L1407.3 105.5 1409.7 97.5C1409.8 96.6 1409.3 95.6 1408.4 95.2 1408 95.2 1407.3 95.4 1406.8 95.8 1406.6 96 1406.6 96 1406.6 96.5L1404.1 104.6 1400.7 98.6C1400.2 97.7 1399.3 97.6 1398.6 97.8 1398.4 98.1 1398.4 98.1 1398.2 98.3 1397.7 98.7 1397.5 99.4 1397.7 100.1L1402.6 109 1399.4 120 1388.4 99.6C1387.7 98.9 1386.9 98.4 1386.2 99.1 1385.7 99.1 1385.7 99.1 1385.5 99.3 1385 99.7 1385 100.6 1385.2 101.3L1398.1 124.8 1395.9 131.7 1380.2 135.6 1375.1 130.3 1375.9 103.6C1375.9 102.7 1375 101.7 1374.1 101.7S1372.3 102.6 1372.2 103.5L1371.8 126.8 1363.9 118.4 1364 108.2C1364 107.3 1363.3 106.6 1362.4 106.6 1361.5 106.6 1360.8 107.2 1360.8 108.1L1360.6 114.9 1354.7 108.6C1354.2 108.2 1353.1 107.9 1352.4 108.6 1351.7 109.2 1351.7 110.6 1352.1 111.1L1358 117.3 1351.3 117.2C1350.8 117.1 1350.4 117.1 1350.1 117.3 1349.7 117.8 1349.6 118.2 1349.6 118.7 1349.6 119.6 1350.3 120.3 1351.2 120.3L1361.3 120.8 1369.3 129.2 1346 128.3C1345.5 128.3 1345.3 128.5 1344.8 129 1344.6 129.2 1344.4 129.4 1344.4 129.9 1344.3 130.8 1345.2 131.7 1346.1 131.7L1372.6 132.7 1377.6 138 1373.1 153.3 1365.8 155.4 1343.1 141.2C1342.5 140.9 1341.6 140.9 1341.1 141.3 1340.9 141.5 1340.9 141.5 1341.1 141.8 1340.4 142.4 1340.6 143.6 1341.5 144L1361.3 156.1 1349.9 159 1341.2 153.5C1340.5 153.3 1339.9 153.5 1339.4 154 1339.4 154 1339.2 154.2 1339.2 154.2 1338.5 154.8 1338.7 156 1339.6 156.4L1345.6 160 1337.4 162C1336.9 162 1336.7 162.3 1336.4 162.5 1336 162.9 1335.7 163.6 1336 163.8 1336.2 165 1337 165.4 1337.9 165.5L1346.2 163.4 1342.6 169C1342.1 169.9 1342.3 171 1343.2 171.5 1343.9 171.7 1345 171.5 1345.3 170.9L1350.7 162.2 1361.9 159.5 1349.8 179.4C1349.3 180.3 1349.7 181.2 1350.4 181.9 1351.1 182.1 1352.2 181.9 1352.7 181ZM1386.2 164.7L1377.6 155.7 1376.3 154.3 1376.8 152.5 1380.3 140.8 1381 138.8 1382.8 138.4 1394.7 135.5 1396.5 135.1 1397.8 136.5 1406.4 145.6 1407.7 147 1407.2 148.8 1403.7 160.5 1403.2 162.3 1401.2 162.9 1389.3 165.7 1387.5 166.1 1386.2 164.7Z" fill="rgba(173, 173, 173, 0.58)"></path><path d="M428.4 221.7L420 209.2 430 208.1C431.1 208.1 432.2 207 432.3 205.5 431.9 204.2 430.8 203.2 429.7 203.2L416.4 204.3 408.7 192.7 435.7 190.6C437.4 190.4 438.5 189.3 438 188 438.2 186.5 437.1 185.5 435.4 185.7L405.6 188 398.3 177.7 410.9 151.2 422 150.1 439.7 176.6C440.1 176.8 440.6 177 441 177.2 441.4 177.4 442.5 177.4 443.2 177.2 444.6 176.3 444.8 174.8 443.7 173.7L427.6 149.6 441.3 148.7 449.9 160.7C449.7 161.2 450.1 161.4 450.6 161.6 451.4 162 452.5 162 453.4 161.3 454.2 160.6 454.4 159.1 453.9 157.8L446.9 148.1 464 146.7C465.1 146.7 466.1 145.6 466.3 144.1 465.9 142.8 464.8 141.7 463.7 141.8L447.6 143.2 451.9 134.1C452.6 132.8 451.7 131.3 450.8 130.9 449.5 130.2 447.8 130.5 447.2 131.8L441.6 143.5 427.9 144.4 439.4 120.1C440 118.8 439.6 117.6 438.3 116.9 437 116.3 435.7 116.8 435.1 118.1L422.3 145 410.5 146.3 393.9 121.9 398.7 111.9 429.1 109.4C430.6 109.6 431.9 108.1 431.4 106.8 431.6 105.3 430.3 104.6 428.8 104.5L401.2 106.7 407.1 94.2 420.8 93.2C421.9 93.2 423.2 91.7 423.2 90.6S421.6 88.3 420.1 88.1L409.6 89 416.8 73.8C417.4 72.5 416.5 71 415.2 70.4 414.4 70 412.7 70.2 412 71.5L404.8 86.7 398.4 77.8C397.8 77 396.5 76.3 395 77.2 394.1 77.9 393.7 79.8 394.4 80.7L402.4 91.9 396.4 104.5 380.7 81.6C379.6 80.6 378.3 79.9 376.8 80.8 376 81.5 375.6 83.4 376.2 84.3L393.9 109.7 389.2 119.6 359.8 122.2 353.4 112.2 366.2 85.3C366.8 84 366.3 82.8 365 82.1 363.7 81.5 362 81.8 361.4 83.1L349.9 107.3 341.9 96.1 347.5 84.4C348.1 83.1 347.6 81.8 346.3 81.2 345 80.6 343.7 81.1 343.1 82.4L338.8 91.5 329.7 78.1C329.1 77.3 327.1 76.9 326.3 77.5 325.2 78.6 324.6 79.9 325.7 81L335 95 323.4 95.9C322.1 96.3 321.1 97.4 321.1 98.5 321.1 99.5 321.8 100.4 322.7 100.8 322.7 100.8 323.1 101 323.7 100.8L338.5 99.8 346.5 111.1 317.6 113.8C316.1 113.6 315 114.7 315.3 116.4 315.5 117.1 315.7 117.7 316.6 118.1 317 118.3 317.4 118.5 317.9 118.7L349.6 115.7 355.8 125 343.2 151.5 330.6 152.4 313.5 127.8C312.7 126.3 311.2 126.2 310.1 127.3 308.8 127.7 308.6 129.2 309.5 130.7L325 152.9 311.1 154.3 303.6 143.3C302.9 142.4 301.4 142.2 300.1 142.7 299.1 143.8 298.4 145.1 299.5 146.1L305.1 154.6 290.1 156C288.6 155.8 287.9 157.1 287.8 158.6 288 159.3 288.7 160.1 289.5 160.5 289.5 160.5 290 160.7 290.4 160.9L306.5 159.5 301.3 170.4C300.9 171.2 301.1 173 302.4 173.6 303.7 174.2 305.2 173.3 305.6 172.4L312 159 326 157.6 313.4 184.1C312.8 185.4 313.7 186.9 315 187.5S317.5 187.7 318.2 186.4L332 157.3 343.5 156.4 360.1 180.8 354.8 192.1 323.9 194.4C322.6 194.8 321.6 195.9 321.4 197.5 321.6 198.1 322.3 198.9 323.2 199.3 323.6 199.6 324 199.8 324.7 199.5L352.3 197.3 346.3 209.8 332.4 211.2C331.3 211.2 330.3 212.3 330.1 213.8 330.6 215.1 331.6 216.1 332.7 216.1L343.9 215 337.3 228.9C336.9 229.8 337.5 231.7 338.4 232.1 339.7 232.7 341.6 232 342 231.2L348.6 217.3 354.4 226.4C354.8 226.6 355.3 226.8 355.7 227 356.6 227.4 357.6 227.4 358.3 227.2 359.3 226.1 359.5 224.6 359.1 223.3L351.1 212.1 357.1 199.5 372.8 222.4C373.7 223.9 375.2 224.1 376 223.4 377.5 222.5 377.7 221 377.2 219.7L359.5 194.3 364.9 183 394.3 180.5 400.9 190.1 387.1 219.1C386.5 220.4 386.9 221.7 388.2 222.3 389.5 222.9 390.8 222.5 391.4 221.2L404 194.7 411.8 206.4 405.4 219.8C405 220.7 405.6 222.6 406.9 223.2 408.2 223.8 409.7 222.9 410.1 222.1L415.3 211.2 424.4 224.6C424.8 224.8 424.8 224.8 425.2 225 426.1 225.4 427.2 225.4 427.8 225.1 428.9 224.1 429 222.5 428.4 221.7ZM367.4 177.8L364.2 177.9 362.6 175.6 349.1 155.9 347.6 153.6 348.8 151 358.9 129.7 360.1 127.1 362.9 126.8 386.7 124.9 389.5 124.6 391.5 127.1 404.5 146.6 406.5 149.1 405.3 151.7 395.2 173 394 175.6 390.7 175.7 367.4 177.8Z" fill="rgba(173, 173, 173, 0.58)"></path><path d="M1398.6 452.1L1389.1 420.3 1403.3 394.4 1418.7 419.7 1410.6 451.9C1410.6 451.9 1410.6 452.3 1410.6 452.3 1410.6 453.1 1411.4 453.9 1412.2 454.3 1413.4 454.6 1414.6 453.8 1414.6 452.6L1421.6 424.5 1429.1 436.7 1426.1 449.2C1426.1 449.2 1426.1 449.6 1426.1 449.6 1426.1 450.4 1427 451.1 1427.8 451.5 1429 451.9 1430.2 451.1 1430.1 449.9L1432.4 441.4 1437.7 450.5C1438.2 451.3 1439.8 451.7 1440.6 451.3 1441.8 450.8 1441.7 449.2 1441.3 448.4L1435.9 439.4 1444.4 441.6C1445.6 441.9 1446.8 441.1 1446.7 439.9 1447.1 438.7 1446.3 437.5 1445.1 437.6L1432.6 434.6 1425.5 422.4 1453.7 429.4C1454.9 429.7 1456.1 428.9 1456.1 427.7 1456.4 426.5 1455.6 425.3 1454.4 425.4L1422.2 417.2 1406.9 392 1436.9 391.3 1461 414.4C1461.8 415.2 1463 415.2 1463.8 414.4 1464.6 413.5 1464.5 412.3 1463.7 411.6L1442.5 391.2 1456.9 390.9 1465.9 399.5C1466.7 400.3 1467.9 400.3 1468.7 399.4 1469.5 398.6 1469.4 397.4 1468.6 396.6L1462.5 390.8 1473.7 390.5C1474.9 390.9 1475.7 389.7 1475.6 388.5 1475.6 387.3 1474.8 386.5 1473.6 386.5L1463.2 386.8 1469.1 380.6C1469.9 379.8 1469.8 378.6 1469 377.8S1467 377.1 1466.2 377.9L1457.6 386.9 1443.2 387.2 1463.6 365.9C1464.3 365.1 1464.3 363.9 1463.5 363.1 1462.7 362.4 1461.5 362.4 1460.7 363.2L1437.6 387.3 1408 387.9 1422.3 362 1453.3 353C1454.5 352.5 1454.8 351.3 1454.8 350.1 1454.4 348.9 1453.2 348.6 1452 348.6L1424.2 356.8 1431.1 344.2 1443.4 340.8C1444.6 340.3 1445 339.1 1445 337.9 1444.5 336.7 1443.3 336.4 1442.5 336.4L1434.2 339 1439.2 329.7C1439.6 328.8 1439.5 327.2 1438.3 326.9 1437.1 326.5 1435.9 326.5 1435.5 327.7L1430.5 337 1428 328.7C1427.5 327.5 1426.3 327.1 1425.5 327.1 1424.7 327.6 1423.9 328.4 1424 329.2 1424 329.2 1424 329.6 1424 329.6L1427.4 341.9 1420.5 354.5 1412.3 326.6C1411.9 325.4 1410.7 325.1 1409.9 325.1 1409.1 325.5 1408.3 326.3 1408.3 327.1 1408.3 327.1 1408.3 327.5 1408.3 327.5L1417.8 359.3 1403.6 385.2 1388.2 359.9 1396.3 327.8C1396.7 326.6 1395.9 325.4 1394.7 325.4 1393.5 325 1392.3 325.9 1392.3 327.1L1385.3 355.2 1377.8 343 1380.8 330.5C1381.2 329.3 1380.3 328.1 1379.1 328.1 1377.9 327.8 1376.7 328.6 1376.8 329.8L1374.5 338.2 1369.1 329.1C1368.7 328.4 1367.1 328 1366.3 328.4 1365.5 328.8 1365.2 329.6 1365.2 330.4 1365.2 330.8 1365.2 331.2 1365.6 331.6L1371 340.7 1362.5 338.5C1361.3 338.1 1360.2 338.9 1360.2 340.1 1360.2 340.1 1360.2 340.5 1360.2 340.5 1360.2 341.3 1361 342.1 1361.8 342.5L1374.3 345.4 1381.8 357.7 1353.6 350.7C1352.4 350.3 1351.2 351.1 1351.2 352.3 1351.2 352.3 1351.2 352.7 1351.2 352.7 1351.3 353.5 1352.1 354.3 1352.9 354.7L1385.1 362.8 1400.4 388.1 1370.8 388.7 1346.7 365.6C1345.9 364.9 1344.7 364.9 1343.9 365.7 1343.1 366.5 1343.2 367.7 1344 368.5L1364.8 388.9 1350.4 389.2 1341.4 380.5C1340.6 379.8 1339.4 379.8 1338.6 380.6S1337.9 382.6 1338.7 383.4L1344.8 389.3 1334.4 389.5C1333.2 389.5 1332.4 390.3 1332.5 391.5 1332.5 392.7 1333.3 393.5 1334.5 393.5L1344.9 393.3 1339 399.4C1338.6 399.8 1338.3 400.2 1338.3 401S1338.7 402.2 1339.1 402.6C1339.9 403.4 1341.1 403.4 1341.9 402.5L1350.5 393.6 1364.9 393.3 1344.6 414.5C1344.2 414.9 1343.8 415.3 1343.8 416.1 1343.8 416.5 1344.2 417.3 1344.6 417.7 1345.4 418.5 1346.6 418.4 1347.4 417.6L1370.5 393.5 1400.1 392.9 1385.9 418.8 1354.1 428.3C1353.3 428.7 1352.5 429.5 1352.5 430.3 1352.5 430.3 1352.5 430.7 1352.5 430.7 1352.9 431.9 1354.1 432.3 1354.9 432.3L1382.8 424.1 1375.8 436.6 1363.5 440.1C1362.7 440.5 1361.9 441.3 1362 442.1 1362 442.1 1362 442.5 1362 442.5 1362.4 443.7 1363.6 444.1 1364.4 444.1L1372.7 441.5 1367.7 450.8C1367.7 451.2 1367.4 451.6 1367.4 452 1367.4 452.8 1367.8 453.6 1368.6 454 1369.8 454.4 1371 454.3 1371.4 453.1L1376.4 443.8 1379 452.2C1379.4 453.4 1380.6 453.7 1381.4 453.7 1382.6 453.3 1383 452.1 1383 451.3L1379.5 439 1386.4 426.4 1394.6 454.2C1395 455.4 1396.3 455.8 1397.1 455.8 1398.2 454.6 1399 453.3 1398.6 452.1Z" fill="rgba(173, 173, 173, 0.58)"></path><path d="M280.9 487.7L322.8 455.3 337.3 456.8 350.1 486.8 341.3 498.9 288.7 506C288.1 506.2 288.1 506.2 287.5 506.5 286.3 507 285.4 508.1 285.6 510.1 286.3 511.9 287.4 512.8 289.4 512.6L335.4 506.3 321.6 524.7 301.4 527.7C301.4 527.7 300.8 528 300.8 528 299.6 528.5 298.7 529.5 298.8 531.6 298.8 533 300.7 534.3 302.7 534.1L316 532.6 305.7 546C304.8 547.1 304.9 549.1 306.3 550.7S310 551.2 311.5 549.8L321.2 536.7 323.2 549.7C323.4 551.7 325.3 553 327.4 552.8 328.5 552.3 330 551 329.9 549L326.8 528.7 341.2 510.1 347.5 556.1C347.7 558.1 349.6 559.4 351 559.5 352.8 558.7 354.3 557.4 354.2 555.3L346.5 503 355.9 490.6 387.5 494.6 393.5 508.7 374.1 558C373.4 559.7 374.1 561.5 375.8 562.1S379.3 562.1 379.9 560.4L397 517 406.2 538.8 398.8 557.3C398.1 558.9 398.8 560.7 400.8 562S404.2 561.9 404.9 560.2L409.7 547 416.5 562.9C417.2 564.7 419.5 565.1 421.3 564.4 423 563.6 423.7 562 423 560.2L416.2 544.3 428.8 549.4C430.7 550.6 432.5 549.9 432.9 547.6 433.6 545.9 432.8 544.2 431.2 543.5L412.7 536 403.4 514.2 446.5 532.1C448.2 532.8 450.5 531.8 451.2 530.1S451.1 526.7 449.5 526L399.9 506 393.9 491.9 413.6 466.1 428.4 468.2 460.8 510C462.1 511.6 464.1 511.4 465.9 510.7 467.4 509.3 467.2 507.3 466.5 505.5L437.8 469.1 460.6 471.9 473 488.2C474.4 489.7 476.4 489.5 478.1 488.8 479.1 487.7 479.5 485.4 478.2 483.9L470.2 473.4 487 475.3C488.4 475.3 490 474 490.6 472.3 490.5 470.3 489.1 468.8 487.7 468.7L470.9 466.8 481.8 458C482.7 456.9 483.1 454.7 482 453.7 481.3 452 479.9 451.9 478.1 452.6 478.1 452.6 477.5 452.9 477.5 452.9L461.2 465.3 438.5 462.5 475 433.8C476.5 432.4 477.1 430.8 475.8 429.3 474.5 427.7 473 427.6 471.9 428.1 471.3 428.4 471.3 428.4 471.3 428.4L429.1 461.6 414.3 459.6 401.5 429.5 410.5 418 463.5 410.1C464.9 410.2 466.2 408.3 466.3 406.9 466.1 404.9 464.2 403.6 462.2 403.7L416.2 410.1 430 391.7 450.2 388.7C452.2 388.5 453.8 387.2 453 385.4 452.8 383.4 450.9 382.1 449.5 382L435.9 384.3 446.2 370.9C446.8 369.2 446.7 367.2 445.3 365.7 444.5 365.4 443.1 365.3 441.9 365.8 441.3 366 441.3 366 441 366.9L430.7 380.3 428.4 366.7C428.2 364.6 426.5 364 425.1 363.9 424.5 364.1 424.5 364.1 423.9 364.4 422.7 364.9 421.8 366 421.7 367.4L424.8 387.7 411 406 404.7 360C403.9 358.3 402.6 356.8 400.8 357.5 400 357.2 400 357.2 399.4 357.4 398.2 357.9 397.5 359.6 397.4 361L405.4 414 396.3 425.5 364.1 421.8 358.4 408.2 378.4 358.7C379.1 357 378.1 354.7 376.4 354S372.3 354.3 371.7 356L354.6 399.4 345.6 378.2 352.8 359.1C353.5 357.4 352.8 355.7 351.1 355 349.4 354.3 347.6 355.1 347 356.7L341.9 369.3 335.1 353.4C334.6 352.3 332.7 351 330.9 351.7 329.2 352.5 328.1 355 328.6 356.2L335.4 372.1 322.8 367C322 366.7 321.1 366.3 320.5 366.6 319.4 367.1 319 367.9 318.7 368.8 318 370.4 318.8 372.2 320.4 372.9L339.1 380.9 348.2 402.1 305.1 384.3C304.3 383.9 303.7 384.2 302.5 384.7 301.9 384.9 301.3 385.2 301 386 300.3 387.7 301.3 390.1 303 390.7L351.9 411 357.7 424.5 338.6 450 323.5 448.8 290.8 406.3C289.7 405.4 288.1 404.7 286.9 405.2 286.3 405.5 286.3 405.5 286.5 406.1 284.8 406.8 284.4 409.1 285.7 410.6L314.4 447.1 291.1 444.5 278.6 428.2C277.5 427.3 276.1 427.2 274.9 427.7 274.9 427.7 274.3 428 274.3 428 272.5 428.7 272.1 431 273.4 432.5L282.2 443.4 265.4 441.5C264.6 441.1 264 441.4 263.4 441.6 262.2 442.1 261.3 443.2 261.6 443.8 261.1 446.1 262.5 447.6 264.1 448.3L280.9 450.2 270.4 458.1C268.9 459.4 268.5 461.7 269.8 463.2 270.9 464.2 273.2 464.6 274.1 463.5L290.4 451 313.1 453.9 276.6 482.6C275.1 483.9 275.3 485.9 276 487.7 277.1 488.6 279.4 489.1 280.9 487.7ZM355.1 480.6L345.3 457.6 343.8 454.1 346 451 360.7 431.6 363.5 428.3 367.2 428.8 391.3 431.8 395 432.3 396.5 435.8 406.3 458.8 407.8 462.3 405.6 465.3 390.9 484.8 388.7 487.8 384.4 487.5 360.3 484.6 356.6 484.1 355.1 480.6Z" fill="rgba(173, 173, 173, 0.58)"></path><path d="M1140.3 116.1L1153.2 92.9 1176 86.5 1170.1 109.4 1147.2 122.8C1147.2 122.8 1147 123 1147 123 1146.5 123.5 1146.6 124.4 1146.8 125.1 1147.3 126 1148.4 126.2 1149.1 125.5L1169.1 113.7 1166.3 124.8 1157.5 130.2C1157.5 130.2 1157.3 130.4 1157.3 130.4 1156.8 130.8 1156.8 131.7 1157.1 132.4 1157.5 133.3 1158.7 133.5 1159.3 132.8L1165.4 129.4 1163.2 137.5C1163 138.2 1163.7 139.4 1164.4 139.6 1165.3 140 1166.2 139.1 1166.4 138.4L1168.6 130.2 1172.1 136.3C1172.5 137.2 1173.7 137.4 1174.3 136.7 1175.2 136.3 1175.4 135.1 1174.7 134.5L1169.4 125.7 1172.5 114.8 1184.3 134.8C1184.7 135.7 1185.9 135.9 1186.5 135.2 1187.4 134.8 1187.6 133.6 1186.9 132.9L1173.5 110 1179.4 87.1 1196.5 103.9 1196.9 130.6C1196.9 131.5 1197.6 132.1 1198.5 132.1 1199.4 132.1 1200.1 131.4 1200 130.5L1199.7 107 1208 115 1208.1 125C1208.1 125.9 1208.8 126.6 1209.7 126.6 1210.6 126.5 1211.3 125.9 1211.3 124.9L1211.2 118.2 1217.6 124.4C1218.1 125.3 1219.2 125.1 1219.9 124.4 1220.5 123.7 1220.5 122.8 1219.8 122.1L1213.9 116.3 1220.7 116.2C1221.6 116.2 1222.3 115.5 1222.2 114.6S1221.5 113.1 1220.6 113.1L1210.7 113.2 1202.4 105.1 1226 104.9C1226.9 104.8 1227.5 104.2 1227.5 103.2 1227.5 102.3 1226.8 101.7 1225.9 101.7L1199.2 102 1182.3 85.5 1205.1 79.1 1227.6 91.7C1228.5 92.1 1229.4 91.7 1230.1 91 1230.5 90.1 1230.1 89.2 1229.4 88.5L1209.1 77.2 1220.2 74.1 1229 79.2C1230 79.7 1230.9 79.2 1231.5 78.5 1232 77.6 1231.5 76.7 1231 76.3L1224.9 73 1233 70.6C1233.7 70.4 1234.6 69.4 1234.1 68.5 1233.6 67.6 1233 67 1232.1 67.4L1223.9 69.8 1227.3 63.6C1227.7 62.7 1227.2 61.8 1226.8 61.4 1226.1 61.2 1225.2 61.2 1224.7 61.6 1224.7 61.6 1224.5 61.9 1224.5 61.9L1219.4 70.8 1208.4 73.8 1219.7 53.6C1220.1 52.7 1219.6 51.8 1219.2 51.3 1218.5 51.1 1217.6 51.1 1217.2 51.6 1217.2 51.6 1216.9 51.8 1216.9 51.8L1204.1 75 1181.3 81.4 1187.1 58.5 1210.1 45.1C1211 44.6 1211.2 43.5 1210.5 42.8 1210 41.9 1208.9 41.7 1208.2 42.4L1188.2 54.2 1191 43.1 1199.8 37.7C1200.7 37.3 1200.9 36.1 1200.2 35.5 1199.7 34.6 1198.6 34.4 1197.9 35.1L1191.9 38.5 1194 30.3C1194.2 29.7 1193.6 28.5 1192.9 28.3 1192.2 28.1 1191.5 28.3 1191.1 28.8 1190.8 29 1190.6 29.3 1190.6 29.7L1188.5 37.9 1185 31.8C1184.5 30.9 1183.4 30.7 1182.7 31.4 1182.7 31.4 1182.5 31.6 1182.5 31.6 1182.1 32.1 1182.1 33 1182.3 33.7L1187.6 42.4 1184.8 53.5 1173 33.6C1172.6 32.7 1171.4 32.4 1170.8 33.1 1170.8 33.1 1170.5 33.4 1170.5 33.4 1170.1 33.8 1170.1 34.7 1170.3 35.4L1183.7 58.3 1177.9 81.2 1161 64.7 1160.6 38C1160.6 37.1 1159.9 36.4 1159 36.4 1158.1 36.5 1157.5 37.1 1157.5 38.1L1157.5 61.4 1149.3 53.3 1149.2 43.4C1149.1 42.5 1148.5 41.8 1147.6 41.8S1146 42.5 1146 43.4L1146.1 50.2 1140.1 44.4C1139.4 43.7 1138.5 43.7 1137.9 44.4 1137.2 45.1 1137.2 46 1137.9 46.7L1143.8 52.5 1137.1 52.6C1136.6 52.6 1136.2 52.6 1135.7 53S1135.3 53.9 1135.3 54.4C1135.3 55.3 1136 56 1136.9 56L1146.8 55.8 1155.1 63.9 1131.5 64.2C1131.1 64.2 1130.6 64.2 1130.2 64.6 1130 64.9 1129.8 65.6 1129.8 66 1129.8 66.9 1130.5 67.6 1131.4 67.6L1158.1 67.2 1175 83.8 1152.2 90.2 1129 77.3C1128.3 77.1 1127.4 77.1 1127 77.6 1127 77.6 1126.7 77.8 1126.7 77.8 1126.3 78.7 1126.8 79.6 1127.2 80.1L1147.5 91.4 1136.5 94.4 1127.6 89.3C1126.9 89.1 1126 89.1 1125.5 89.6 1125.5 89.6 1125.3 89.8 1125.3 89.8 1124.9 90.7 1125.3 91.6 1125.8 92.1L1131.9 95.4 1123.8 97.8C1123.6 98 1123.1 98 1122.9 98.2 1122.5 98.7 1122.3 99.4 1122.5 100 1123 100.9 1123.6 101.6 1124.5 101.1L1132.7 98.8 1129.3 104.9C1128.9 105.8 1129.4 106.7 1129.8 107.2 1130.7 107.6 1131.6 107.2 1132.1 106.7L1137.2 97.8 1148.2 94.7 1136.9 115C1136.5 115.9 1137 116.8 1137.4 117.3 1138.8 117.3 1139.9 117 1140.3 116.1Z" fill="rgba(173, 173, 173, 0.58)"></path><path d="M49.6 179.9L73.1 192.1 75.4 199 64.5 211.1 57.2 209.6 42.9 187.2C42.7 187 42.7 187 42.4 186.8 42 186.4 41.3 186.2 40.4 186.7 39.7 187.4 39.6 188.1 40.1 188.9L52.6 208.5 41.4 206.1 35.7 197.5C35.7 197.5 35.5 197.3 35.5 197.3 35 196.9 34.3 196.7 33.4 197.2 32.8 197.5 32.6 198.6 33.1 199.5L36.6 205.2 28.3 203.3C27.6 203.2 26.7 203.6 26.3 204.6S26.9 206.4 27.8 206.8L35.8 208.4 30.3 212.1C29.4 212.6 29.3 213.7 29.8 214.6 30.2 215 31.2 215.4 32 214.9L40.6 209.3 52.1 211.9 32.5 224.4C31.6 224.9 31.5 226.1 31.7 226.7 32.4 227.4 33.4 227.8 34.2 227.3L56.4 212.8 64 214.5 68.8 229.7 63.6 235.4 37.2 236.9C36.3 236.9 35.7 237.6 35.7 238.5S36.5 240.1 37.4 240.1L60.6 238.7 52.7 247.4 42.7 247.9C41.8 248 41.2 248.7 41 249.8S41.8 251.4 42.7 251.3L49.7 250.8 43.9 257.2C43.2 257.9 43.5 259 44.2 259.6 44.9 260.3 45.8 260.2 46.5 259.5L52.3 253.1 52.6 259.9C52.5 261.1 53.2 261.7 54.3 261.4 55.2 261.4 55.8 260.7 55.8 259.8L55.3 249.8 63.2 241 64.2 264.3C64.2 265.2 65.2 266.1 66.1 266S67.6 265.3 67.6 264.4L66.3 237.7 71.4 232 87.2 235.5 89.4 242.7 77.2 266.2C76.8 267.1 77.3 268 78 268.6 78.9 269 79.8 268.5 80.4 267.8L91 247.1 94.4 258.1 89.7 267.1C89.3 268.1 89.8 269 90.5 269.6 91.2 269.8 92.3 269.5 92.7 268.6L95.8 262.8 98.5 270.8C98.7 271.5 99.7 271.9 100.6 271.8 101.4 271.3 101.8 270.4 101.6 269.7L98.9 261.7 105.2 264.8C105.9 265 107 264.7 107.2 264 107.8 263.3 107.6 262.6 106.9 262 106.9 262 106.6 261.8 106.6 261.8L97.6 257 94.1 246.1 114.8 256.6C115.7 257 116.6 257 117 256.1 117.4 255.1 117.1 254.5 116.7 254 116.4 253.8 116.4 253.8 116.4 253.8L92.5 241.6 90.3 234.5 101.3 222.4 108.4 224.1 123.1 246.5C123.4 247.1 124.5 247.3 125.2 247 126 246.5 126.2 245.4 125.7 244.5L113.2 225 124.4 227.4 130 235.9C130.5 236.8 131.5 237.2 132.1 236.5 133 236 133.2 234.9 132.9 234.2L129 228.5 137.3 230.4C138.2 230.3 139 229.8 139.4 228.9 139.4 228.4 139.2 227.8 138.7 227.3 138.5 227.1 138.5 227.1 138 227.1L129.8 225.3 135.4 221.4C136.3 220.9 136.3 220 136 219.3 135.8 219.1 135.8 219.1 135.6 218.9 135.1 218.5 134.4 218.3 133.7 218.5L125.2 224.2 113.9 221.8 133.5 209.2C134.1 208.5 134.5 207.6 133.8 207 133.8 206.5 133.8 206.5 133.6 206.3 133.1 205.9 132.2 205.9 131.5 206.2L109.1 220.9 102 219.2 97 203.8 101.9 198.3 128.6 197C129.5 197 130.3 196 130.3 195.1S129.3 193.4 128.4 193.4L105.1 194.8 112.9 186.3 123 185.5C123.9 185.5 124.6 184.8 124.5 183.9 124.5 183 123.8 182.3 122.9 182.4L116.1 182.7 121.9 176.3C122.3 175.8 122.5 174.7 121.8 174 121.1 173.4 119.7 173.5 119.3 173.9L113.5 180.3 113.1 173.5C113.1 173.1 113.1 172.6 112.9 172.4 112.4 172 111.9 172 111.5 172 110.6 172.1 109.9 172.8 110 173.7L110.3 183.9 102.5 192.4 101.6 169.1C101.6 168.7 101.3 168.5 100.9 168 100.6 167.8 100.4 167.6 99.9 167.6 99 167.7 98.2 168.6 98.2 169.5L99.3 196 94.4 201.4 78.8 198.1 76.2 191 88.6 167.3C88.8 166.6 88.7 165.7 88.3 165.3 88 165 88 165 87.8 165.3 87.1 164.6 86 164.9 85.6 165.9L75 186.5 71.3 175.4 76.1 166.3C76.3 165.6 76 165 75.5 164.5 75.5 164.5 75.3 164.3 75.3 164.3 74.6 163.7 73.5 164 73.1 164.9L70 171.2 67.3 163.1C67.3 162.7 67.1 162.5 66.8 162.2 66.4 161.8 65.7 161.6 65.4 161.9 64.3 162.1 63.9 163.1 64 164L66.6 172 60.8 168.9C59.9 168.5 58.8 168.8 58.4 169.7 58.2 170.4 58.4 171.5 59.1 171.7L68.2 176.5 71.7 187.4 51 176.8C50.1 176.4 49.2 176.9 48.6 177.6 48.4 178.3 48.6 179.5 49.6 179.9ZM68.4 212L76.8 202.8 78 201.3 79.9 201.7 91.8 204.3 93.9 204.9 94.4 206.6 98.1 218.2 98.7 220 97.4 221.5 89 230.7 87.7 232.1 85.9 231.8 74 229.2 72.2 228.8 71.4 226.8 67.6 215.2 67.1 213.4 68.4 212Z" fill="rgba(173, 173, 173, 0.58)"></path><path d="M605.7 57.9L611.6 70.6 603.2 70.2C602.3 70.1 601.3 70.9 600.9 72.1 601.1 73.2 601.9 74.2 603 74L613.5 74.9 618.6 84.6 596.6 82.7C595.5 82.9 594.5 83.7 594.4 84.6 594.4 86 595.1 87 596.2 86.8L620.5 88.8 627.7 103.8 608.9 100.2 619.2 116.4 602.6 115.3 591.8 93.4C592 93.1 591.6 92.9 591.3 92.7 590.7 92.2 589.8 92.1 589 92.5 588.2 93 587.9 94.2 588.1 95.3L597.9 115 587 113.9 582.3 104.5C582.2 103.9 581.9 103.7 581.6 103.4 581.2 103.2 580.4 103.1 579.6 103.5 578.8 104 578.5 105.2 578.9 106L582.4 113.7 568.4 112.9C567.2 112.5 566.5 113.5 566.2 114.7 566.1 115.6 566.8 116.6 568.3 116.6L582 117.8 577.3 124.7C576.6 125.7 577.2 127 577.8 127.5 578.8 128.2 579.9 128 580.6 127L586.7 118 597.5 119.1 585.4 137C584.7 138 584.9 139.1 585.9 139.8 586.6 140.2 588 140.2 588.7 139.2L602.2 119.4 618.8 120.5 606.6 134.9 625.5 134.2 616 148.1 592.1 146.4C590.6 146.3 590 147.3 589.9 148.2 589.7 149.1 590.5 150.1 591.7 150.5L613.6 151.8 607.5 160.7 596.7 160.2C595.5 159.8 594.5 160.6 594.5 162 594.4 162.9 595.2 163.9 596.6 163.9L604.8 164.7 596.9 176.2C596.3 177.2 596.5 178.3 597.5 179S599.6 179.5 600.3 178.5L608.1 166.9 611.8 174.3C612.4 175.6 613.6 175.9 614.4 175.5 615.7 175 616 173.7 615.3 172.7L610.8 162.9 616.9 154 626.1 173.8C626.9 174.8 628.1 175.2 628.9 174.7 630.2 174.2 630.6 173 629.8 172L619.3 150.4 628.8 136.5 635.1 154.3 644 137.6 651.2 152.6 637.7 172.5C637 173.5 637.6 174.8 638.2 175.3 639.2 175.9 640.3 175.7 641 174.7L653.4 156.5 658.2 166.6 652.1 175.5C651.4 176.5 651.6 177.6 652.6 178.3 653.3 178.7 654.7 178.7 655.4 177.7L660.1 170.8 666.2 183.1C666.8 184.5 668 184.8 669 184.1 669.8 183.6 670.4 182.6 669.7 181.6L663.8 168.9 672.2 169.3C673.1 169.4 674.1 168.7 674.2 167.8 674.3 166.9 673.9 166.1 673.6 165.9 673.2 165.7 672.9 165.5 672.4 165.6L661.8 164.7 656.8 155 678.8 156.8C679.9 156.6 680.9 155.9 681 155 681.1 154.1 680.7 153.3 680 152.9 679.7 152.6 679.7 152.6 679.1 152.7L654.8 150.8 647.6 135.7 666.5 139.3 656.2 123.2 672.8 124.3 683.6 146.1C684.1 146.9 685 147.6 686.4 147 687.2 146.6 687.5 145.4 687.3 144.3L677.5 124.6 688.3 125.6 693 135.1C693.2 136.2 694.5 136.6 695.8 136 696.6 135.6 696.9 134.4 696.7 133.3L693 125.9 707 126.7C708.2 127 708.9 126 709.2 124.8 709.1 124.3 708.7 123.5 708.3 123.3 708 123 707.7 122.8 707.1 122.9L693.4 121.8 698.1 114.9C698.8 113.9 698.2 112.5 697.5 112.1L697.5 112.1C696.6 111.4 695.4 111.6 694.8 112.6L688.7 121.5 677.8 120.5 690 102.6C690.6 101.6 690.4 100.5 689.4 99.8S687.3 99.3 686.7 100.3L673.2 120.2 656.6 119.1 668.8 104.6 649.9 105.4 659.3 91.5 683.3 93.2C684.7 93.2 685.4 92.2 685.5 91.3 685.6 90.5 684.9 89.4 683.7 89.1L662 87.5 667.9 78.9 678.6 79.4C679.8 79.8 680.9 79 680.9 77.5 681 76.7 680.2 75.7 679 75.3L670.6 74.9 678.4 63.3C679.1 62.3 678.9 61.2 677.9 60.5S675.8 60.1 675.1 61.1L667.3 72.7 663.5 65.3C663.4 64.7 663.1 64.5 662.8 64.3 662.1 63.8 661.6 64 661 64.1 659.7 64.6 659.3 65.8 660.1 66.8L664.6 76.6 658.5 85.6 649.2 65.7C648.9 65.5 648.6 65.3 648.2 65.1 647.6 64.6 647 64.7 646.5 64.8 645.1 65.4 644.8 66.6 645.6 67.6L656 89.2 646.6 103.1 640.3 85.3 631.4 102 624.2 86.9 637.7 67.1C638.4 66.1 637.8 64.8 637.2 64.3 636.2 63.6 635 63.8 634.4 64.8L622.2 82.7 617.2 73 623.3 64.1C624 63.1 623.7 62 622.8 61.3S620.7 60.8 620 61.8L615.3 68.8 609.2 56.4C609 55.9 608.7 55.6 608.4 55.4 608.1 55.2 607.2 55.1 606.4 55.5 605.6 55.9 604.9 56.9 605.7 57.9ZM639.6 94.9L644.7 109.5 660.1 108.9 650 120.9 658.2 133.7 643 131.1 635.8 144.6 630.7 130 615.3 130.7 625.2 119 617.2 105.9 632.1 108.8 639.6 94.9Z" fill="rgba(173, 173, 173, 0.58)"></path></g><defs><mask id="SvgjsMask1004"><rect width="1440" height="560" fill="#ffffff"></rect></mask><filter id="SvgjsFilter1005"><feGaussianBlur stdDeviation="1"></feGaussianBlur></filter></defs></svg>